<svg width="19" height="24" viewBox="0 0 19 24" fill="none" xmlns="http://www.w3.org/2000/svg">
<path d="M1.78125 24C1.30625 24 0.890625 23.82 0.534375 23.46C0.178125 23.1 0 22.68 0 22.2V6.6C0 6.12 0.178125 5.7 0.534375 5.34C0.890625 4.98 1.30625 4.8 1.78125 4.8H5.04688V4.5C5.04688 3.24 5.47734 2.175 6.33828 1.305C7.19922 0.435 8.25313 0 9.5 0C10.7469 0 11.8008 0.435 12.6617 1.305C13.5227 2.175 13.9531 3.24 13.9531 4.5V4.8H17.2188C17.6938 4.8 18.1094 4.98 18.4656 5.34C18.8219 5.7 19 6.12 19 6.6V22.2C19 22.68 18.8219 23.1 18.4656 23.46C18.1094 23.82 17.6938 24 17.2188 24H1.78125ZM6.82812 4.5V4.8H12.1719V4.5C12.1719 3.74 11.9146 3.1 11.4 2.58C10.8854 2.06 10.2521 1.8 9.5 1.8C8.74792 1.8 8.11458 2.06 7.6 2.58C7.08542 3.1 6.82812 3.74 6.82812 4.5ZM1.78125 22.2H17.2188V6.6H13.9531V9.3C13.9531 9.56 13.869 9.775 13.7008 9.945C13.5326 10.115 13.3198 10.2 13.0625 10.2C12.8052 10.2 12.5924 10.115 12.4242 9.945C12.256 9.775 12.1719 9.56 12.1719 9.3V6.6H6.82812V9.3C6.82812 9.56 6.74401 9.775 6.57578 9.945C6.40755 10.115 6.19479 10.2 5.9375 10.2C5.68021 10.2 5.46745 10.115 5.29922 9.945C5.13099 9.775 5.04688 9.56 5.04688 9.3V6.6H1.78125V22.2ZM1.78125 22.2V6.6V22.2Z" fill="#562F7D"/>
</svg>
