<svg width="125" height="125" viewBox="0 0 125 125" fill="none" xmlns="http://www.w3.org/2000/svg">
<path d="M106.87 125H18.13C8.12 125 0 116.88 0 106.87V18.13C0 8.12 8.12 0 18.13 0H106.87C116.88 0 125 8.12 125 18.13V106.87C125 116.88 116.88 125 106.87 125Z" fill="#F5F5F5"/>
<path d="M48.6699 13.22C48.6699 13.22 60.7199 27.49 79.0399 13.67C79.0399 13.67 81.5199 30.27 61.7499 31.57C44.3799 32.71 48.6699 13.22 48.6699 13.22Z" fill="#16171C"/>
<path d="M99.58 105.59V110.41C97.09 112.11 92.67 110.68 92.67 110.68L91.76 106.26C90.31 106.26 89.9 101.76 89.9 101.76C89.68 103.32 89 104.56 89 104.56C64.35 109.91 36.3 104.97 36.3 104.97C35.88 104.05 35.7 102.48 35.7 102.48C35.37 106.39 32.73 107.3 32.73 107.3L31.83 111.74C28.79 112.13 25.32 110.57 25.32 110.57L25.6 106.01C22.43 105.73 23.09 93.8199 24.34 83.0099C24.62 80.5899 24.94 78.2299 25.24 76.0699C25.26 75.8999 25.29 75.7299 25.31 75.5499C26.12 69.9099 26.85 65.7499 26.85 65.7499C27.58 61.5899 28.4 56.3399 29.23 50.9799C29.26 50.7899 29.28 50.6199 29.31 50.4299C29.68 47.9099 30.06 45.3799 30.41 42.9299C31.9 32.7999 33.08 24.1199 33.08 24.1199C33.81 19.0499 41.43 17.1899 41.43 17.1899C46.36 21.2899 62.51 29.2699 62.51 29.2699C69.5 27.5799 85.53 18.0599 85.53 18.0599C92.04 20.7999 92.45 27.3099 92.45 27.3099C92.95 30.8299 94.53 41.1099 95.95 50.2099C97.25 58.6199 98.39 65.9999 98.39 65.9999C99.17 70.9399 99.8 75.2699 100.27 79.0699C103.83 107.2 99.58 105.59 99.58 105.59Z" fill="#20697B"/>
<path d="M48.6699 13.22C48.6699 13.22 46.3899 14.74 46.0199 14.83C46.0199 14.83 54.1299 24.97 55.8299 25.58C55.8299 25.58 49.4999 17.52 48.6699 13.22Z" fill="#16171C"/>
<path d="M46.56 13.92C46.56 13.92 42.13 16.53 40.61 17.31C40.61 17.31 56.83 29.78 62.5 29.39C62.5 29.39 51.4 22.65 46.56 13.92Z" fill="#144D56"/>
<path d="M79.04 13.67C79.04 13.67 81.17 15.37 81.52 15.5C81.52 15.5 72.47 24.92 70.73 25.38C70.73 25.38 77.8 17.89 79.04 13.67Z" fill="#16171C"/>
<path d="M81.0699 14.83C81.0699 14.83 85.3199 17.69 86.7899 18.56C86.7899 18.56 69.0799 30.12 63.4399 29.4C63.4399 29.4 75.6599 23.26 81.0699 14.83Z" fill="#144D56"/>
<path d="M51.6 22.3199C51.6 22.3199 53.15 23.1499 53.13 23.8199C53.13 23.8199 52.71 37.5999 53.13 42.2899C53.54 46.9799 54.83 61.7199 54.31 64.5399C54.31 64.5399 55.83 65.5799 54.73 66.3599C53.62 67.1399 51.92 66.0799 52.15 65.1299C52.15 65.1299 52.57 64.2699 53.23 64.3999C53.23 64.3999 53 47.3999 52.23 40.2299C51.47 33.0699 51.6 22.3199 51.6 22.3199Z" fill="#BCBCBC"/>
<path d="M76.71 21.34C76.71 21.34 75.16 22.17 75.18 22.84C75.18 22.84 75.6 36.62 75.18 41.31C74.77 46 73.49 60.75 74 63.56C74 63.56 72.48 64.6 73.59 65.38C74.7 66.16 76.4 65.1 76.17 64.15C76.17 64.15 75.76 63.3 75.09 63.42C75.09 63.42 75.32 46.42 76.09 39.25C76.84 32.1 76.71 21.34 76.71 21.34Z" fill="#BCBCBC"/>
<path d="M37.62 56.29L35.67 75.96L25.22 76.35C25.23 76.18 25.27 76.01 25.29 75.83C26.13 70.19 26.88 66.03 26.88 66.03C27.63 61.87 28.47 56.62 29.32 51.26C29.36 51.07 29.37 50.9 29.4 50.71L37.62 56.29Z" fill="#144D56"/>
<path d="M100.6 79.36L90.17 77.51L87.95 55.1L96.29 50.5C97.59 58.91 98.73 66.29 98.73 66.29C99.51 71.24 100.14 75.57 100.6 79.36Z" fill="#144D56"/>
<path d="M38.41 50.38L37.67 57.18C37.67 57.18 34.81 54.19 29 51.25C29.42 48.55 29.85 45.83 30.25 43.2C31.96 44.46 35.9 47.48 38.41 50.38Z" fill="#5DA7AF"/>
<path d="M87.6799 51.4999L88.3799 58.2999C88.3799 58.2999 91.0699 55.3099 96.5299 52.3699C96.1299 49.6699 95.7299 46.9499 95.3499 44.3199C93.7399 45.5799 90.0399 48.5999 87.6799 51.4999Z" fill="#5DA7AF"/>
<path d="M36.0399 75.2599L35.6099 81.3699C35.6099 81.3699 31.2599 83.1999 24.2699 83.2899C24.5799 80.6799 24.9399 78.1299 25.2699 75.8299C28.0699 75.9099 32.5399 75.8999 36.0399 75.2599Z" fill="#5DA7AF"/>
<path d="M89.75 75.2599L90.16 81.3699C90.16 81.3699 94.33 83.1999 101.07 83.2999C100.77 80.6899 100.45 78.1399 100.14 75.8399C97.44 75.9099 93.12 75.8999 89.75 75.2599Z" fill="#5DA7AF"/>
<path d="M91.24 23.0699C91.24 23.0699 90.56 24.1499 89.78 26.1999C89.38 27.2199 88.97 28.4899 88.61 29.9599C88.22 31.4299 87.95 33.1199 87.66 34.9599C87.45 36.8099 87.25 38.8199 87.25 40.9499C87.19 43.0799 87.35 45.3199 87.53 47.6399C87.96 52.2899 88.58 57.2399 89.17 62.1999C89.72 67.1599 90.24 72.1399 90.63 76.8099C90.84 79.1399 90.96 81.4099 91.07 83.5499C91.15 85.6999 91.21 87.7299 91.22 89.5999C91.22 91.4799 91.2 93.1999 91.09 94.7199C91.02 96.2399 90.88 97.5699 90.76 98.6499C90.67 99.7399 90.46 100.58 90.38 101.16C90.28 101.74 90.23 102.05 90.23 102.05C90.23 102.05 90.26 101.74 90.31 101.16C90.35 100.58 90.48 99.7299 90.51 98.6399C90.57 97.5499 90.63 96.2299 90.62 94.7099C90.65 93.1899 90.57 91.4799 90.52 89.6199C90.45 87.7499 90.32 85.7299 90.17 83.5999C89.98 81.4699 89.78 79.2199 89.57 76.8899C89.13 72.2399 88.54 67.2799 87.96 62.3199C87.43 57.3599 86.86 52.3899 86.48 47.7099C86.3 45.3599 86.26 43.0799 86.38 40.9199C86.45 38.7599 86.71 36.7299 86.99 34.8699C87.32 33.0099 87.7 31.3199 88.18 29.8599C88.62 28.3899 89.11 27.1399 89.56 26.1299C90.47 24.0999 91.24 23.0699 91.24 23.0699Z" fill="#38000B"/>
<path d="M34.5599 21.74C34.5599 21.74 34.7499 22 35.0699 22.53C35.3699 23.06 35.8299 23.83 36.2699 24.88C37.1899 26.95 38.2499 30.04 38.8499 33.86C39.1299 35.77 39.3799 37.86 39.4299 40.07C39.5299 42.28 39.4499 44.62 39.2599 47.03C38.8199 51.8 38.3299 56.9 37.8499 62C37.3099 67.09 36.8099 72.18 36.4399 76.95C36.2699 79.34 36.0999 81.65 35.9399 83.84C35.8099 86.03 35.7099 88.1 35.6599 90.02C35.6299 91.93 35.5699 93.69 35.6099 95.24C35.6099 96.8 35.6799 98.15 35.7499 99.27C35.7899 100.39 35.9199 101.26 35.9599 101.86C36.0199 102.46 36.0399 102.78 36.0399 102.78C36.0399 102.78 35.9899 102.46 35.8899 101.87C35.8099 101.28 35.5999 100.41 35.5099 99.29C35.3799 98.17 35.2399 96.82 35.1599 95.26C35.0399 93.7 34.9999 91.94 34.9799 90.02C34.9699 88.1 34.9999 86.01 35.0599 83.81C35.1299 81.61 35.2199 79.29 35.3899 76.89C35.7099 72.1 36.1599 66.99 36.6399 61.89C37.1799 56.8 37.7199 51.71 38.2199 46.94C38.4099 44.57 38.5799 42.27 38.5499 40.08C38.5699 37.89 38.3899 35.84 38.1699 33.94C37.6799 30.16 36.8599 27.05 36.0499 24.95C35.2599 22.85 34.5599 21.74 34.5599 21.74Z" fill="#38000B"/>
</svg>
