<svg width="125" height="125" viewBox="0 0 125 125" fill="none" xmlns="http://www.w3.org/2000/svg">
<path d="M106.87 125H18.13C8.12 125 0 116.88 0 106.87V18.13C0 8.12 8.12 0 18.13 0H106.87C116.88 0 125 8.12 125 18.13V106.87C125 116.88 116.88 125 106.87 125Z" fill="#F5F5F5"/>
<path d="M67.62 87.3L68.54 102.05L73.18 102.6L74.44 88.21L67.62 87.3Z" fill="#A8A8A8" stroke="#F5F5F5" stroke-miterlimit="10"/>
<path d="M110.86 97.73C110.84 97.98 110.82 98.22 110.78 98.51C110.78 98.51 110.61 100.02 108.8 101.43C107.01 102.85 97.32 105.51 92.85 103.94C91.45 103.45 90.02 102.54 88.6 101.45H88.58C85.45 99.09 82.37 95.9 79.93 94.66C76.4 92.85 68.6 89.47 68.6 89.47C68.6 89.47 67.43 88.38 67.51 85.86C67.58 83.33 71.76 77.52 71.91 73.35C72.08 69.18 66.73 47.98 66.73 47.98C66.73 47.98 62.71 32.95 64.82 22.85C64.82 22.85 77.72 18.9 85.91 21.43C85.91 21.43 86.42 37.04 86.98 50.97C87.44 62.16 88.82 77.05 90.24 79.73C91.66 82.39 94.81 88.53 97 91.06C99.21 93.57 101.72 94.52 108.5 93.72C108.5 93.71 111.13 92.92 110.86 97.73Z" fill="#A8A8A8" stroke="#F5F5F5" stroke-miterlimit="10"/>
<path d="M110.86 97.58C110.84 97.83 110.82 98.07 110.78 98.35C110.78 98.35 110.61 99.86 108.8 101.27C107.01 102.69 97.32 105.35 92.85 103.78C91.45 103.29 90.02 102.38 88.6 101.29C101.48 103.31 108.29 99.56 110.86 97.58Z" fill="#A8A8A8" stroke="#F5F5F5" stroke-miterlimit="10"/>
<path d="M17.53 87.2999L18.44 102.05L23.08 102.6L24.34 88.2099L17.53 87.2999Z" fill="#A8A8A8" stroke="#F5F5F5" stroke-miterlimit="10"/>
<path d="M60.77 97.73C60.75 97.98 60.73 98.22 60.69 98.5C60.69 98.5 60.52 100.01 58.71 101.43C56.92 102.84 47.23 105.51 42.76 103.94C41.36 103.45 39.93 102.54 38.51 101.45H38.49C35.36 99.09 32.28 95.9 29.84 94.65C26.31 92.84 18.51 89.46 18.51 89.46C18.51 89.46 17.34 88.37 17.42 85.86C17.49 83.33 21.67 77.52 21.82 73.34C21.99 69.17 16.64 47.97 16.64 47.97C16.64 47.97 12.62 32.94 14.73 22.84C14.73 22.84 27.62 18.89 35.82 21.42C35.82 21.42 36.33 37.03 36.89 50.96C37.34 62.15 38.73 77.04 40.15 79.72C41.57 82.38 44.72 88.52 46.91 91.05C49.12 93.56 51.63 94.51 58.41 93.71C58.41 93.71 61.03 92.92 60.77 97.73Z" fill="#A8A8A8" stroke="#F5F5F5" stroke-miterlimit="10"/>
<path d="M60.77 97.58C60.75 97.83 60.73 98.07 60.69 98.35C60.69 98.35 60.52 99.86 58.71 101.28C56.92 102.7 47.23 105.36 42.76 103.79C41.36 103.3 39.93 102.39 38.51 101.3C51.38 103.32 58.2 99.56 60.77 97.58Z" fill="#A8A8A8" stroke="#F5F5F5" stroke-miterlimit="10"/>
</svg>
