<svg width="125" height="125" viewBox="0 0 125 125" fill="none" xmlns="http://www.w3.org/2000/svg">
<path d="M106.87 125H18.13C8.12 125 0 116.88 0 106.87V18.13C0 8.12 8.12 0 18.13 0H106.87C116.88 0 125 8.12 125 18.13V106.87C125 116.88 116.88 125 106.87 125Z" fill="#F5F5F5"/>
<path d="M83.01 12.23C82.67 10.02 82.67 7.33997 82.67 7.33997H62.54H62.46H42.33C42.33 7.33997 42.34 10.02 41.99 12.23C41.01 18.51 41.16 24.4 41.22 27.82C41.39 38.68 45.22 58.47 47.3 81.04C48.02 88.83 48.2 109.2 48.58 113.16C48.83 115.76 48.45 116.64 48.45 116.64C48.45 116.64 53.16 118.5 59.67 117.16L59.73 114.16L61.96 33.09C61.96 33.09 62.17 31.81 62.49 31.94H62.5H62.51C62.84 31.81 63.04 33.09 63.04 33.09L65.27 114.16L65.33 117.16C71.84 118.49 76.55 116.64 76.55 116.64C76.55 116.64 76.17 115.76 76.42 113.16C76.8 109.2 76.99 88.82 77.7 81.04C79.77 58.47 83.61 38.68 83.78 27.82C83.83 24.4 83.98 18.51 83.01 12.23Z" fill="#20697B"/>
<path d="M83.08 12.23C65.2 14.67 47.68 12.93 41.99 12.23C42.27 9.38997 42.39 7.33997 42.39 7.33997H82.68C82.68 7.33997 82.81 9.38997 83.08 12.23Z" fill="#20697B"/>
<path d="M48.58 113.17C51.09 113.53 55.03 113.98 59.74 114.15L59.65 117.18C53.14 118.51 48.46 116.66 48.46 116.66C48.46 116.66 48.52 115.29 48.58 113.17Z" fill="#144D56"/>
<path d="M76.49 116.65C76.49 116.65 71.81 118.51 65.3 117.17L65.21 114.19C68.76 114.12 72.52 113.86 76.37 113.26C76.42 115.34 76.49 116.65 76.49 116.65Z" fill="#144D56"/>
<path d="M41.24 28.6399C41.18 27.9399 41.1799 27.0099 41.1999 26.5099C49.5199 24.7399 48.5199 12.4199 48.5199 12.4199H50.5399C50.9599 24.8999 44.63 27.9699 41.24 28.6399Z" fill="#5DA7AF"/>
<path d="M50.54 12.6099C50.54 13.1999 50.06 13.6799 49.47 13.6799C48.88 13.6799 48.4 13.1999 48.4 12.6099C48.4 12.0199 48.88 11.5399 49.47 11.5399C50.06 11.5399 50.54 12.0199 50.54 12.6099Z" fill="#BDAE9C"/>
<path d="M49.24 12.1699C49.24 12.3099 49.13 12.4199 48.99 12.4199C48.85 12.4199 48.74 12.3099 48.74 12.1699C48.74 12.0299 48.85 11.9199 48.99 11.9199C49.12 11.9299 49.24 12.0399 49.24 12.1699Z" fill="#7F766B"/>
<path d="M50.29 12.1699C50.29 12.3099 50.18 12.4199 50.04 12.4199C49.9 12.4199 49.79 12.3099 49.79 12.1699C49.79 12.0299 49.9 11.9199 50.04 11.9199C50.18 11.9299 50.29 12.0399 50.29 12.1699Z" fill="#7F766B"/>
<path d="M50.29 13.1199C50.29 13.2599 50.18 13.3599 50.04 13.3599C49.9 13.3599 49.79 13.2499 49.79 13.1199C49.79 12.9799 49.9 12.8699 50.04 12.8699C50.18 12.8699 50.29 12.9799 50.29 13.1199Z" fill="#7F766B"/>
<path d="M49.24 13.1199C49.24 13.2599 49.13 13.3599 48.99 13.3599C48.85 13.3599 48.74 13.2499 48.74 13.1199C48.74 12.9799 48.85 12.8699 48.99 12.8699C49.12 12.8699 49.24 12.9799 49.24 13.1199Z" fill="#7F766B"/>
<path d="M50.7199 13.3699C50.7199 13.3699 51.5299 27.2199 41.2399 28.6499" stroke="#093E47" stroke-width="0.5" stroke-miterlimit="10" stroke-dasharray="3.09 3.09"/>
<path d="M83.77 28.6399C83.83 27.9399 83.83 27.0099 83.81 26.5099C75.49 24.7399 76.49 12.4199 76.49 12.4199H74.47C74.04 24.8999 80.38 27.9699 83.77 28.6399Z" fill="#5DA7AF"/>
<path d="M74.47 12.6099C74.47 13.1999 74.95 13.6799 75.54 13.6799C76.13 13.6799 76.61 13.1999 76.61 12.6099C76.61 12.0199 76.13 11.5399 75.54 11.5399C74.95 11.5399 74.47 12.0199 74.47 12.6099Z" fill="#BDAE9C"/>
<path d="M75.77 12.1699C75.77 12.3099 75.88 12.4199 76.02 12.4199C76.16 12.4199 76.27 12.3099 76.27 12.1699C76.27 12.0299 76.16 11.9199 76.02 11.9199C75.88 11.9299 75.77 12.0399 75.77 12.1699Z" fill="#7F766B"/>
<path d="M74.72 12.1699C74.72 12.3099 74.83 12.4199 74.97 12.4199C75.11 12.4199 75.22 12.3099 75.22 12.1699C75.22 12.0299 75.11 11.9199 74.97 11.9199C74.83 11.9199 74.72 12.0399 74.72 12.1699Z" fill="#7F766B"/>
<path d="M74.72 13.1199C74.72 13.2599 74.83 13.3599 74.97 13.3599C75.11 13.3599 75.22 13.2499 75.22 13.1199C75.22 12.9799 75.11 12.8699 74.97 12.8699C74.83 12.8699 74.72 12.9799 74.72 13.1199Z" fill="#7F766B"/>
<path d="M75.77 13.1199C75.77 13.2599 75.88 13.3599 76.02 13.3599C76.16 13.3599 76.27 13.2499 76.27 13.1199C76.27 12.9799 76.16 12.8699 76.02 12.8699C75.88 12.8699 75.77 12.9799 75.77 13.1199Z" fill="#7F766B"/>
<path d="M74.29 13.3699C74.29 13.3699 73.48 27.2199 83.77 28.6499" stroke="#093E47" stroke-width="0.5" stroke-miterlimit="10" stroke-dasharray="3.09 3.09"/>
<path d="M61.96 13.5099C61.96 13.5099 62.35 24.0899 62.54 31.9499" stroke="#093E47" stroke-width="0.5" stroke-miterlimit="10" stroke-dasharray="3.09 3.09"/>
<path d="M64.3899 13.5099C64.3899 13.5099 64.7099 21.9299 64.3899 25.7399C64.2899 26.8599 63.1399 27.9099 62.5499 27.7799" stroke="#093E47" stroke-width="0.5" stroke-miterlimit="10" stroke-dasharray="3.09 3.09"/>
</svg>
