<svg width="125" height="125" viewBox="0 0 125 125" fill="none" xmlns="http://www.w3.org/2000/svg">
<path d="M106.87 125H18.13C8.12 125 0 116.88 0 106.87V18.13C0 8.12 8.12 0 18.13 0H106.87C116.88 0 125 8.12 125 18.13V106.87C125 116.88 116.88 125 106.87 125Z" fill="#F5F5F5"/>
<path d="M52.91 4.84997C52.91 4.84997 62.6 7.64997 75.38 4.84997C75.38 4.84997 74.67 24.55 64.11 24.55C53.55 24.55 52.9 4.58997 52.9 4.58997" fill="#144D56"/>
<path d="M45.1001 120.4C45.1001 120.4 70.6201 116.62 81.3601 118.23L80.4001 103.88L60.5401 101.62L45.1001 120.4Z" fill="#144D56"/>
<path d="M93.83 86.01C93.83 87.29 93.83 88 93.83 88C91.31 89.2 87.28 87.63 87.28 87.63C87.3 87.24 87.3 86.78 87.26 86.26C87.08 74.78 82.36 31.02 82.36 31.02C81.98 33.19 79.58 38.03 78.96 45.54C78.34 53.03 82.87 59.69 84.38 71.18C85.89 82.66 81.36 118.23 81.36 118.23C74.43 117.15 68.02 111.94 68.02 111.94C53.78 121.02 45.1 120.4 45.1 120.4C41.57 97.68 42.08 86.45 42.04 76.62C42 66.79 47.96 53.4 47.96 48.56C47.96 43.72 46.11 31.14 46.11 31.14C41.76 43.93 39.04 77.96 38.5 85.23C38.44 86.14 38.4 86.62 38.4 86.62C35.04 87.41 31.17 86.62 31.17 86.62C31.19 85.9 31.21 85.17 31.23 84.43C32.1 56.19 36.55 11.56 41.08 10.38C44.54 9.48998 49.4 6.85998 51.68 5.57998C52.47 5.13998 52.93 4.84998 52.93 4.84998C55.95 13.58 64.25 23.56 64.25 23.56C69.4 19.1 75.38 4.85998 75.38 4.85998C75.76 5.02998 76.11 5.20998 76.41 5.35998C79.27 6.82998 79.27 7.30998 86.4 9.36998C93.53 11.42 93.85 73.99 93.83 86.01Z" fill="#20697B"/>
<path d="M41.0801 10.4C43.0801 17.22 45.0801 24.1 46.1201 31.14C44.9801 25.07 42.5601 16.48 41.0801 10.4Z" fill="#750E16"/>
<path d="M87.03 9.71997C85.9 16.9 84.5 24.06 82.38 31.02C84.19 23.98 85.59 16.85 87.03 9.71997Z" fill="#750E16"/>
<path d="M78.92 47.1899C74.45 43.8799 70.08 40.1799 67.01 35.4999C70.34 39.9899 74.64 43.6299 78.92 47.1899Z" fill="#750E16"/>
<path d="M79.53 52.01C71.14 52.68 62.53 51.98 54.5 49.37C62.62 51.66 71.13 52.36 79.53 52.01Z" fill="#750E16"/>
<path d="M79.4001 51.36C76.8201 51.23 74.4201 50 72.2201 48.72C74.5801 49.69 76.8701 50.89 79.4001 51.36Z" fill="#750E16"/>
<path d="M79.22 50.4C77.84 50.18 76.49 49.61 75.41 48.73C76.51 49.24 78.09 49.92 79.22 50.4Z" fill="#750E16"/>
<path d="M78.92 48.16C70.78 44.23 62.42 39.86 56.27 33.08C62.64 39.63 70.91 43.94 78.92 48.16Z" fill="#750E16"/>
<path d="M79.9601 53.74C72.8301 60.09 63.1401 62.89 53.7801 63.55C52.4301 63.62 51.0701 63.61 49.7201 63.65C51.0701 63.57 52.4201 63.54 53.7701 63.43C63.1101 62.63 72.6701 59.82 79.9601 53.74Z" fill="#750E16"/>
<path d="M80.4001 55.3C78.7601 61.94 75.0201 68.41 69.1901 72.19C69.8601 71.65 70.5901 71.18 71.2001 70.57C75.7301 66.58 78.6801 61.03 80.4001 55.3Z" fill="#750E16"/>
<path d="M79.53 59.61C77.52 67.75 72.27 74.96 65.51 79.84C64.55 80.55 63.5 81.13 62.5 81.78C70.55 76.71 76.92 68.81 79.53 59.61Z" fill="#750E16"/>
<path d="M83.38 65.66C81.81 81.39 78.24 99.45 68.02 111.95C78.04 99.1 81.45 81.51 83.38 65.66Z" fill="#750E16"/>
<path d="M47.8201 50.04C49.8501 52.67 52.9401 54.42 56.2601 54.69C52.9001 54.78 49.5801 52.89 47.8201 50.04Z" fill="#750E16"/>
<path d="M47.3501 52.36C48.1801 55.19 50.5801 57.23 53.2501 58.31C50.4401 57.57 47.8301 55.32 47.3501 52.36Z" fill="#750E16"/>
<path d="M76.41 5.35999C72.56 17.38 64.5 25.69 64.5 25.69C60.75 22.79 53.92 11.67 51.67 5.58999C52.46 5.14999 52.92 4.85999 52.92 4.85999C55.94 13.59 64.24 23.57 64.24 23.57C69.4 19.1 75.38 4.85999 75.38 4.85999C75.76 5.02999 76.11 5.20999 76.41 5.35999Z" fill="#16171C"/>
<path d="M93.83 86.0099C93.83 87.2899 93.83 87.9999 93.83 87.9999C91.31 89.1999 87.28 87.6299 87.28 87.6299C87.3 87.2399 87.3 86.7799 87.26 86.2599" fill="#16171C"/>
<path d="M38.5 85.2299C38.44 86.1399 38.4 86.6199 38.4 86.6199C35.04 87.4099 31.17 86.6199 31.17 86.6199C31.19 85.8999 31.21 85.1699 31.23 84.4299C33.28 85.0199 36.36 85.6999 38.5 85.2299Z" fill="#16171C"/>
</svg>
