<svg width="125" height="125" viewBox="0 0 125 125" fill="none" xmlns="http://www.w3.org/2000/svg">
<path d="M106.87 125H18.13C8.12 125 0 116.88 0 106.87V18.13C0 8.12 8.12 0 18.13 0H106.87C116.88 0 125 8.12 125 18.13V106.87C125 116.88 116.88 125 106.87 125Z" fill="#F5F5F5"/>
<path d="M80.5 52.75C83.13 60.82 93.11 108.61 93.11 108.61C93.11 108.61 88.34 112.2 72.02 113.45L72 114.6C69.48 114.78 66.43 114.98 63.34 114.94C40.36 115.2 33.59 108.62 33.59 108.62C33.59 108.62 43.57 60.82 46.2 52.76C48.83 44.71 46.2 34.93 46.2 34.93L38 77.07L37.31 80.7L37.27 80.88L28.47 79.77L28.51 79.53L29.08 75.8L37.88 17.96C37.88 17.96 39.04 9.16 42.59 8.61C46.14 8.05 49.88 6.69 49.88 6.69C50.36 6.59 50.83 6.41 51.27 6.19C52.61 5.52 53.71 4.41 54.38 3.59C54.86 3.02 55.14 2.6 55.14 2.6C55.39 1.17 57.58 0.54 59.7 0.24C61.15 0.0399998 62.6 0 63.36 0C64.22 0 65.86 0.0399997 67.48 0.3C69.45 0.64 71.35 1.29 71.6 2.6C71.6 2.6 72.59 4.15 74.16 5.35C74.64 5.73 75.19 6.08 75.78 6.32C76.12 6.48 76.47 6.6 76.85 6.68C76.85 6.68 80.59 8.05 84.14 8.6C87.69 9.15 88.85 17.95 88.85 17.95L98.26 79.76L89.46 80.87L80.53 34.91C80.5 34.92 77.87 44.71 80.5 52.75Z" fill="#20697B"/>
<path d="M62.88 11.01C72.05 11.32 71.25 1.84 70.9 1.55C70.13 0.91 68.81 0.53 67.45 0.3C65.83 0.0399997 64.19 0 63.33 0C62.57 0 61.12 0.0399998 59.67 0.24C58.19 0.44 56.69 0.83 55.82 1.52C55.02 4.99 56.15 10.78 62.88 11.01Z" fill="#144D56"/>
<path d="M71.7 12.75C72.51 45.62 73.1 80.62 72.01 113.45C72.47 81.01 71.92 45.3 71.7 12.75Z" fill="#1D2D2D"/>
<path d="M71.09 6.31995L69.12 13.1199C67.88 12.2499 66.77 11.3199 66.22 10.8199C65.99 10.5999 65.84 10.4799 65.84 10.4799L65.4 11.0499H61.3L60.94 10.4399C60.94 10.4399 60.6 10.6799 60.06 11.0399C59.2 11.6099 57.79 12.5299 56.34 13.3399C56.11 10.2699 55.86 6.31995 55.86 6.31995H71.09Z" fill="#58BFA7"/>
<path d="M75.75 7.60998C75.35 10.27 74.78 13.69 74.24 15.48C73.29 18.71 65.58 11.77 65.58 11.77L65.14 12.34H60.94L60.56 11.73C60.56 11.73 51.08 18.21 50.52 15.89C50.06 14.15 50.54 8.49998 50.73 6.41998C50.94 6.33998 50.97 6.32998 51.18 6.21998C53.24 5.00998 54.6 3.87998 54.6 3.87998C54.77 2.94998 55.78 2.36998 57.04 1.97998C56.9 2.23998 56.82 2.54998 56.8 2.88998C56.44 3.34998 56.23 3.91998 56.3 4.62998C56.55 7.33998 58.95 9.95998 60.06 11.03C60.4 11.37 60.63 11.54 60.63 11.54L61.01 12.21L65.11 12.23L65.53 11.69C65.53 11.69 65.8 11.35 66.22 10.8C67.4 9.20998 69.71 5.89998 69.5 4.47998C69.5 4.43998 69.48 4.39998 69.48 4.35998C69.63 3.89998 69.69 3.50998 69.65 3.18998C69.59 2.76998 69.42 2.39998 69.19 2.01998C70.39 2.41998 71.31 2.98998 71.48 3.85998C71.48 3.85998 73.53 5.29998 75.97 6.38998C75.99 6.42998 75.69 7.58998 75.75 7.60998Z" fill="#5DA7AF"/>
<path d="M75.75 6.31999C75.69 6.71999 75.62 7.10999 75.58 7.52999C75.18 9.94999 74.72 12.66 74.28 14.19C73.78 15.97 71.25 14.67 69.11 13.12C67.87 12.25 66.76 11.32 66.21 10.82C65.98 10.6 65.83 10.48 65.83 10.48L65.39 11.05H61.29L60.93 10.44C60.93 10.44 60.59 10.68 60.05 11.04C59.19 11.61 57.78 12.53 56.33 13.34C53.91 14.71 51.41 15.78 51.12 14.61C50.74 13.1 50.97 9.47999 51.16 7.17999C51.18 6.79999 51.22 6.46999 51.24 6.18999C53.53 5.03999 55.11 2.59999 55.11 2.59999C55.36 1.16999 57.55 0.53999 59.67 0.23999C58.6 0.51999 57.51 1.02999 57.02 1.97999C56.9 2.23999 56.82 2.54999 56.8 2.88999C56.76 3.02999 56.76 3.18999 56.78 3.34999C56.86 4.37999 57.26 5.40999 57.79 6.31999C59.03 8.55999 61 10.26 61 10.26L61.36 10.93L65.35 10.95L65.77 10.42C65.77 10.42 67.41 8.33999 68.54 6.31999C68.92 5.62999 69.25 4.94999 69.46 4.37999C69.61 3.91999 69.67 3.52999 69.63 3.20999C69.57 2.78999 69.4 2.41999 69.17 2.03999C68.71 1.32999 67.99 0.70999 67.45 0.29999C69.42 0.63999 71.32 1.28999 71.57 2.59999C71.57 2.58999 73.29 5.26999 75.75 6.31999Z" fill="#5DA7AF"/>
<path d="M41.79 8.88C42.48 13.23 43.22 17.59 43.73 21.97C44.16 26.36 44.74 30.75 46.19 34.92C44.55 30.8 43.98 26.38 43.48 22C43.05 17.6 42.28 13.26 41.79 8.88Z" fill="#1D2D2D"/>
<path d="M84.81 8.88C84.32 13.27 83.55 17.61 83.12 22C82.62 26.38 82.05 30.8 80.41 34.92C81.86 30.75 82.44 26.36 82.87 21.97C83.38 17.59 84.13 13.23 84.81 8.88Z" fill="#1D2D2D"/>
<path d="M38 77.07L37.3 80.69L28.5 79.5201L29.07 75.8L38 77.07Z" fill="#355050"/>
<path d="M28.46 76.25L38.35 77.65L37.65 81.27L28 80L28.46 76.25Z" fill="#5DA7AF"/>
<path d="M97.59 75.55L98.12 79.2001L89.37 80.67L88.68 76.96L97.59 75.55Z" fill="#355050"/>
<path d="M88.25 77.56L98.12 76.01L98.64 79.66L89.05 81.27L88.25 77.56Z" fill="#5DA7AF"/>
<path d="M59.77 31.2398C59.77 32.1798 59.01 32.9498 58.06 32.9498C57.12 32.9498 56.35 32.1798 56.35 31.2398C56.35 30.2998 57.11 29.5298 58.06 29.5298C59.01 29.5298 59.77 30.2898 59.77 31.2398Z" fill="#2B2B32"/>
<path d="M58.82 31.2398C58.82 31.6598 58.48 31.9998 58.07 31.9998C57.65 31.9998 57.31 31.6598 57.31 31.2398C57.31 30.8198 57.65 30.4898 58.07 30.4898C58.48 30.4798 58.82 30.8198 58.82 31.2398Z" fill="#16171C"/>
<path d="M59.77 44.19C59.77 45.13 59.01 45.9 58.06 45.9C57.12 45.9 56.35 45.13 56.35 44.19C56.35 43.25 57.11 42.48 58.06 42.48C59.01 42.48 59.77 43.24 59.77 44.19Z" fill="#2B2B32"/>
<path d="M58.82 44.19C58.82 44.61 58.48 44.95 58.07 44.95C57.65 44.95 57.31 44.61 57.31 44.19C57.31 43.77 57.65 43.44 58.07 43.44C58.48 43.43 58.82 43.77 58.82 44.19Z" fill="#16171C"/>
<path d="M70.58 44.19C70.58 45.13 69.82 45.9 68.87 45.9C67.93 45.9 67.16 45.13 67.16 44.19C67.16 43.25 67.92 42.48 68.87 42.48C69.82 42.48 70.58 43.24 70.58 44.19Z" fill="#2B2B32"/>
<path d="M69.63 44.19C69.63 44.61 69.29 44.95 68.88 44.95C68.46 44.95 68.12 44.61 68.12 44.19C68.12 43.77 68.46 43.44 68.88 43.44C69.29 43.43 69.63 43.77 69.63 44.19Z" fill="#16171C"/>
<path d="M70.58 31.2398C70.58 32.1798 69.82 32.9498 68.87 32.9498C67.93 32.9498 67.16 32.1798 67.16 31.2398C67.16 30.2998 67.92 29.5298 68.87 29.5298C69.82 29.5298 70.58 30.2898 70.58 31.2398Z" fill="#2B2B32"/>
<path d="M69.63 31.2398C69.63 31.6598 69.29 31.9998 68.88 31.9998C68.46 31.9998 68.12 31.6598 68.12 31.2398C68.12 30.8198 68.46 30.4898 68.88 30.4898C69.29 30.4798 69.63 30.8198 69.63 31.2398Z" fill="#16171C"/>
<path d="M59.77 19.79C59.77 20.73 59.01 21.5 58.06 21.5C57.12 21.5 56.35 20.74 56.35 19.79C56.35 18.85 57.11 18.08 58.06 18.08C59.01 18.08 59.77 18.84 59.77 19.79Z" fill="#2B2B32"/>
<path d="M58.82 19.79C58.82 20.21 58.48 20.54 58.07 20.54C57.65 20.54 57.31 20.2 57.31 19.79C57.31 19.37 57.65 19.04 58.07 19.04C58.48 19.03 58.82 19.37 58.82 19.79Z" fill="#16171C"/>
<path d="M70.58 19.79C70.58 20.73 69.82 21.5 68.87 21.5C67.93 21.5 67.16 20.74 67.16 19.79C67.16 18.85 67.92 18.08 68.87 18.08C69.82 18.08 70.58 18.84 70.58 19.79Z" fill="#2B2B32"/>
<path d="M69.63 19.79C69.63 20.21 69.29 20.54 68.88 20.54C68.46 20.54 68.12 20.2 68.12 19.79C68.12 19.37 68.46 19.04 68.88 19.04C69.29 19.03 69.63 19.37 69.63 19.79Z" fill="#16171C"/>
<path d="M97.21 78.26C97.12 78.89 96.54 79.33 95.91 79.25C95.28 79.17 94.84 78.59 94.92 77.96C95 77.33 95.59 76.89 96.22 76.97C96.85 77.05 97.29 77.63 97.21 78.26Z" fill="#2B2B32"/>
<path d="M96.57 78.18C96.53 78.46 96.28 78.65 96 78.62C95.72 78.58 95.53 78.33 95.56 78.05C95.6 77.77 95.85 77.57 96.13 77.61C96.41 77.64 96.61 77.9 96.57 78.18Z" fill="#16171C"/>
<path d="M30.79 78.4C30.7 79.03 30.12 79.47 29.49 79.39C28.86 79.31 28.42 78.73 28.5 78.09C28.58 77.46 29.16 77.02 29.8 77.1C30.44 77.19 30.88 77.77 30.79 78.4Z" fill="#2B2B32"/>
<path d="M30.16 78.3099C30.12 78.5899 29.87 78.7899 29.59 78.7499C29.31 78.7099 29.12 78.4599 29.15 78.1799C29.19 77.8999 29.44 77.7099 29.72 77.7399C30 77.7799 30.19 78.0299 30.16 78.3099Z" fill="#16171C"/>
</svg>
