<svg width="125" height="125" viewBox="0 0 125 125" fill="none" xmlns="http://www.w3.org/2000/svg">
<path d="M106.87 125H18.13C8.12 125 0 116.88 0 106.87V18.13C0 8.12 8.12 0 18.13 0H106.87C116.88 0 125 8.12 125 18.13V106.87C125 116.88 116.88 125 106.87 125Z" fill="#F5F5F5"/>
<path d="M52.91 4.84997C52.91 4.84997 62.6 7.64997 75.38 4.84997C75.38 4.84997 74.67 24.55 64.11 24.55C53.55 24.55 52.9 4.58997 52.9 4.58997" fill="#A8A8A8"/>
<path d="M52.91 4.84995C60.49 6.42995 68.34 5.99995 75.85 4.31995C75.63 8.69995 74.96 13.0599 73.36 17.1899C72.59 19.1499 71.5 21.0499 69.95 22.5799C66.86 25.8499 61.14 25.7499 58.21 22.3399C54.04 17.4799 53.18 10.7499 52.92 4.58995C53.6 10.5899 54.62 17.1999 58.77 21.7999C61.53 24.7799 66.5 24.8799 69.29 21.8999C73.43 17.3699 74.45 10.7699 74.96 4.83995L75.48 5.27995C68.06 6.75995 60.23 6.87995 52.91 4.84995Z" fill="#F5F5F5"/>
<path d="M45.1 120.4C45.1 120.4 70.62 116.62 81.36 118.23L80.4 103.88L60.54 101.62L45.1 120.4Z" fill="#A8A8A8"/>
<path d="M45.1 120.4C57.09 118.61 69.28 116.62 81.43 117.78L80.91 118.26C80.58 113.48 80.21 108.69 79.92 103.91L80.35 104.36C74.49 103.68 66.27 102.72 60.51 102.01L60.86 101.87L45.1 120.4ZM45.1 120.4L60.24 101.37L60.37 101.21C66.21 101.79 74.53 102.76 80.45 103.39L80.85 103.43L80.88 103.84C81.24 108.81 81.52 113.79 81.85 118.76C75.71 117.88 69.4 118.33 63.21 118.68C57.17 119.11 51.13 119.7 45.1 120.4Z" fill="#F5F5F5"/>
<path d="M93.83 86.01C93.83 87.29 93.83 88 93.83 88C91.31 89.2 87.28 87.63 87.28 87.63C87.3 87.24 87.3 86.78 87.26 86.26C87.08 74.78 82.36 31.02 82.36 31.02C81.98 33.19 79.58 38.03 78.96 45.54C78.34 53.03 82.87 59.69 84.38 71.18C85.89 82.66 81.36 118.23 81.36 118.23C74.43 117.15 68.02 111.94 68.02 111.94C53.78 121.02 45.1 120.4 45.1 120.4C41.57 97.68 42.08 86.45 42.04 76.62C42 66.79 47.96 53.4 47.96 48.56C47.96 43.72 46.11 31.14 46.11 31.14C41.76 43.93 39.04 77.96 38.5 85.23C38.44 86.14 38.4 86.62 38.4 86.62C35.04 87.41 31.17 86.62 31.17 86.62C31.19 85.9 31.21 85.17 31.23 84.43C32.1 56.19 36.55 11.56 41.08 10.38C44.54 9.48998 49.4 6.85998 51.68 5.57998C52.47 5.13998 52.93 4.84998 52.93 4.84998C55.95 13.58 64.25 23.56 64.25 23.56C69.4 19.1 75.38 4.85998 75.38 4.85998C75.76 5.02998 76.11 5.20998 76.41 5.35998C79.27 6.82998 79.27 7.30998 86.4 9.36998C93.53 11.42 93.85 73.99 93.83 86.01Z" fill="#A8A8A8"/>
<path d="M93.83 86.01V88C92.81 88.47 91.64 88.52 90.54 88.41C89.43 88.29 88.29 88.04 87.27 87.63C87.06 78.16 86 68.73 85.16 59.3C84.25 49.87 83.28 40.45 82.26 31.03L82.49 31.04C82.08 32.87 81.38 34.57 80.88 36.34C77.31 47.98 79.77 52.3 82.96 63.21C85.08 70.34 85.13 77.84 84.68 85.2C84.1 96.35 82.94 107.45 81.61 118.53C76.53 117.72 71.92 115.23 67.86 112.16L68.2 112.18C61.2 116.48 53.48 120.5 45.09 120.73H44.82L44.78 120.45C42.34 105.57 41.33 90.5 41.67 75.43C42.07 67.78 44.69 60.59 46.63 53.38C47.09 51.57 47.58 49.76 47.5 47.96C47.25 42.36 46.41 36.76 45.64 31.21L46.6 31.3C43.88 40.18 42.74 49.55 41.54 58.76C40.41 68.04 39.52 77.34 38.82 86.67L38.8 86.97L38.51 87.04C35.95 87.6 33.34 87.45 30.78 86.97C30.98 79.31 31.4 71.65 31.95 64C32.49 56.47 33.16 48.94 34 41.43C35.18 32.08 36.07 22.57 38.85 13.52C39.28 12.41 39.66 11.13 40.65 10.34C41.28 10 42.05 9.92002 42.71 9.63002C46.22 8.34002 49.58 6.55002 52.81 4.67002L53.06 4.52002L53.16 4.79002C55.67 11.63 59.92 17.76 64.41 23.46L64.13 23.44C65.48 22.25 66.57 20.78 67.6 19.29C70.65 14.76 73.06 9.81002 75.25 4.82002L75.31 4.67002L75.46 4.74002C78.77 6.56002 82.08 8.14002 85.76 9.06002C87.81 9.40002 88.51 11.63 89.1 13.34C91.64 22.37 92.02 31.84 92.72 41.15C93.58 56.07 93.85 71.04 93.83 86.01ZM93.83 86.01C93.55 63.61 93.62 41.01 90.16 18.83C89.61 16.11 89.1 13.29 87.76 10.84C87.29 10 86.64 9.45002 85.67 9.29002C82.01 8.41002 78.58 6.78002 75.32 5.00002L75.53 4.92002C74.09 8.28002 72.51 11.58 70.74 14.79C68.93 17.97 67.09 21.21 64.37 23.73L64.22 23.86L64.09 23.7C61.77 20.85 59.64 17.86 57.67 14.76C55.73 11.65 53.95 8.41002 52.7 4.93002L53.05 5.05002C49.36 7.18002 45.6 9.27002 41.51 10.53C40.19 10.79 39.81 12.55 39.34 13.67C36.62 22.68 35.76 32.15 34.62 41.48C33.81 48.98 33.17 56.5 32.65 64.03C32.14 71.56 31.75 79.09 31.57 86.63L31.26 86.23C32.41 86.44 33.62 86.55 34.8 86.56C35.99 86.57 37.18 86.48 38.32 86.22L38.01 86.58C38.68 77.25 39.53 67.93 40.63 58.63C41.82 49.33 42.88 39.98 45.66 30.96L46.32 28.93L46.62 31.05C47.15 34.78 47.63 38.51 48.02 42.26C48.46 46.01 48.75 49.99 47.52 53.6C45.57 60.82 42.9 67.96 42.52 75.45C42.13 90.47 43.08 105.49 45.46 120.33L45.15 120.05C49.18 120.06 53.24 118.81 56.99 117.34C60.75 115.88 64.46 113.81 67.9 111.68L68.08 111.57L68.25 111.7C72.12 114.65 76.61 117.11 81.44 117.95L81.13 118.18C82.81 103.57 84.72 88.87 84.46 74.14C84.21 66.72 81.45 59.77 79.57 52.67C77.4 45.11 80.43 37.53 82.45 30.32C83.46 39.97 84.43 49.62 85.33 59.28C85.76 64 86.18 68.71 86.56 73.44C86.92 78.16 87.3 82.89 87.35 87.63C88.32 87.95 89.51 88.29 90.59 88.39C91.69 88.51 92.86 88.45 93.88 88C93.83 88 93.83 86.01 93.83 86.01Z" fill="#F5F5F5"/>
<path d="M41.08 10.4C41.08 10.4 45.38 25.71 46.12 31.14L41.08 10.4Z" fill="#A8A8A8"/>
<path d="M41.08 10.4C43.08 17.22 45.08 24.1 46.12 31.14C44.98 25.07 42.56 16.48 41.08 10.4Z" fill="#F5F5F5"/>
<path d="M87.03 9.71997C87.03 9.71997 84.84 22.5 82.38 31.02L87.03 9.71997Z" fill="#A8A8A8"/>
<path d="M87.03 9.71997C85.9 16.9 84.5 24.06 82.38 31.02C84.19 23.98 85.59 16.85 87.03 9.71997Z" fill="#F5F5F5"/>
<path d="M78.92 47.19C78.92 47.19 70.62 40.98 67.01 35.5L78.92 47.19Z" fill="#A8A8A8"/>
<path d="M78.92 47.19C74.45 43.88 70.08 40.18 67.01 35.5C70.34 39.99 74.64 43.63 78.92 47.19Z" fill="#F5F5F5"/>
<path d="M79.53 52.01C79.53 52.01 66.5 53.16 54.5 49.37L79.53 52.01Z" fill="#A8A8A8"/>
<path d="M79.53 52.01C71.14 52.68 62.53 51.98 54.5 49.37C62.62 51.66 71.13 52.36 79.53 52.01Z" fill="#F5F5F5"/>
<path d="M79.4 51.36C79.4 51.36 77.34 51.38 72.22 48.72L79.4 51.36Z" fill="#A8A8A8"/>
<path d="M79.4 51.36C76.82 51.23 74.42 50 72.22 48.72C74.58 49.69 76.87 50.89 79.4 51.36Z" fill="#F5F5F5"/>
<path d="M79.22 50.4C79.22 50.4 77.17 49.85 75.41 48.73L79.22 50.4Z" fill="#A8A8A8"/>
<path d="M79.22 50.4C77.84 50.18 76.49 49.61 75.41 48.73C76.51 49.24 78.09 49.92 79.22 50.4Z" fill="#F5F5F5"/>
<path d="M78.92 48.16C78.92 48.16 62.73 40.58 56.27 33.08L78.92 48.16Z" fill="#A8A8A8"/>
<path d="M78.92 48.16C70.78 44.23 62.42 39.86 56.27 33.08C62.64 39.63 70.91 43.94 78.92 48.16Z" fill="#F5F5F5"/>
<path d="M79.96 53.74C79.96 53.74 70.03 63.56 49.72 63.64L79.96 53.74Z" fill="#A8A8A8"/>
<path d="M79.96 53.74C72.83 60.09 63.14 62.89 53.78 63.55C52.43 63.62 51.07 63.61 49.72 63.65C51.07 63.57 52.42 63.54 53.77 63.43C63.11 62.63 72.67 59.82 79.96 53.74Z" fill="#F5F5F5"/>
<path d="M80.4 55.3C80.4 55.3 77.83 66.4601 69.19 72.1901L80.4 55.3Z" fill="#A8A8A8"/>
<path d="M80.4 55.3C78.76 61.94 75.02 68.4101 69.19 72.1901C69.86 71.6501 70.59 71.18 71.2 70.57C75.73 66.58 78.68 61.03 80.4 55.3Z" fill="#F5F5F5"/>
<path d="M79.53 59.61C79.53 59.61 76.62 73.32 62.5 81.79L79.53 59.61Z" fill="#A8A8A8"/>
<path d="M79.53 59.61C77.52 67.75 72.27 74.96 65.51 79.84C64.55 80.55 63.5 81.13 62.5 81.78C70.55 76.71 76.92 68.81 79.53 59.61Z" fill="#F5F5F5"/>
<path d="M83.38 65.66C83.38 65.66 81.03 96.79 68.02 111.95L83.38 65.66Z" fill="#A8A8A8"/>
<path d="M83.38 65.66C81.81 81.39 78.24 99.45 68.02 111.95C78.04 99.1 81.45 81.51 83.38 65.66Z" fill="#F5F5F5"/>
<path d="M47.82 50.04C47.82 50.04 50.64 54.53 56.26 54.69L47.82 50.04Z" fill="#A8A8A8"/>
<path d="M47.82 50.04C49.85 52.67 52.94 54.42 56.26 54.69C52.9 54.78 49.58 52.89 47.82 50.04Z" fill="#F5F5F5"/>
<path d="M47.35 52.36C47.35 52.36 48.05 56.54 53.25 58.31L47.35 52.36Z" fill="#A8A8A8"/>
<path d="M47.35 52.36C48.18 55.19 50.58 57.23 53.25 58.31C50.44 57.57 47.83 55.32 47.35 52.36Z" fill="#F5F5F5"/>
<path d="M76.41 5.35999C72.56 17.38 64.5 25.69 64.5 25.69C60.75 22.79 53.92 11.67 51.67 5.58999C52.46 5.14999 52.92 4.85999 52.92 4.85999C55.94 13.59 64.24 23.57 64.24 23.57C69.4 19.1 75.38 4.85999 75.38 4.85999C75.76 5.02999 76.11 5.20999 76.41 5.35999Z" fill="#A8A8A8"/>
<path d="M76.41 5.36C74.08 13.08 69.94 20.23 64.54 26.21C59.81 22.15 56.79 16.6 53.75 11.26C52.75 9.36 51.8 7.41 51.05 5.37L51.42 5.15C51.79 4.92 52.83 4.34 53.18 4.12L53.38 4.68C55.85 11.49 60.12 17.6 64.53 23.31L63.99 23.27C66.65 20.87 68.55 17.65 70.36 14.56C72.19 11.4 73.83 8.12 75.36 4.8L75.39 4.81L76.41 5.36ZM76.41 5.36L75.37 4.88L75.41 4.86C72.52 11.54 69.67 18.57 64.49 23.85L64.2 24.11C61.74 21.19 59.52 18.09 57.47 14.88C55.51 11.76 53.72 8.52 52.46 5.01L53.19 5.27L51.92 6.02L52.14 5.41C53.55 9.08 55.49 12.6 57.55 16C59.64 19.3 61.83 22.77 64.73 25.38L64.22 25.42C69.57 19.66 73.74 12.77 76.41 5.36Z" fill="#F5F5F5"/>
<path d="M93.83 86.01C93.83 87.29 93.83 88 93.83 88C91.31 89.2 87.28 87.63 87.28 87.63C87.3 87.24 87.3 86.78 87.26 86.26" fill="#A8A8A8"/>
<path d="M93.83 86.01C94.01 86.73 94.1 87.46 94.19 88.18C91.95 89.54 89.16 88.9 87 87.78C87.2 86.3 87.28 85.82 87.54 87.65L87.37 87.39C89.42 87.77 91.65 88.29 93.68 87.69L93.49 88C93.58 87.34 93.67 86.67 93.83 86.01Z" fill="#F5F5F5"/>
<path d="M38.5 85.2299C38.44 86.1399 38.4 86.6199 38.4 86.6199C35.04 87.4099 31.17 86.6199 31.17 86.6199C31.19 85.8999 31.21 85.1699 31.23 84.4299C33.28 85.0199 36.36 85.6999 38.5 85.2299Z" fill="#A8A8A8"/>
<path d="M38.5 85.2299L38.56 86.6399V86.7399C36.16 87.5699 33.56 87.5399 31.07 87.1199L30.67 87.0499C30.67 85.9799 30.74 84.8799 30.77 83.8099C33.29 84.5299 35.83 85.3599 38.5 85.2299ZM38.5 85.2299C36.1 85.9999 33.48 85.4899 31.1 84.8999L31.71 84.4499C31.69 85.1799 31.69 85.9099 31.66 86.6399L31.26 86.1399C33.58 86.5599 35.99 86.7399 38.36 86.4699L38.24 86.6099C38.31 86.1999 38.42 85.7499 38.5 85.2299Z" fill="#F5F5F5"/>
</svg>
