<svg width="181" height="30" viewBox="0 0 181 30" fill="none" xmlns="http://www.w3.org/2000/svg">
<path fill-rule="evenodd" clip-rule="evenodd" d="M51.5444 19.3786C52.4058 19.5228 52.9797 19.2363 53.4104 18.9489V18.8066C53.1239 18.9489 52.8365 19.0921 52.2616 19.0921C50.5388 19.2363 50.8262 16.6531 50.683 14.4996C50.683 10.0503 48.243 9.33215 46.6634 9.1889C46.6634 9.1889 47.3816 9.04566 48.243 8.7582C49.5341 8.3275 50.9704 7.17865 50.9704 4.73866C50.9704 2.44191 49.5341 0.575868 46.5202 0.575868H39.7732V0.719116H41.3518V19.0921H39.7732V19.2363H44.9406V19.0921H43.6485V9.33023H45.2271C48.0978 9.33023 48.0978 11.7702 48.242 14.3544C48.3862 16.9396 49.1034 19.0912 51.5444 19.3786V19.3786ZM43.6495 0.718155H45.3723C47.5258 0.574909 48.6737 2.29675 48.5305 4.59349C48.5305 5.45489 48.3872 9.33023 44.9426 9.18698H43.6505V0.718155H43.6495V0.718155ZM125.757 19.3786C126.619 19.5228 127.192 19.2363 127.623 18.9489L127.479 18.8066C127.337 18.9489 127.05 19.0921 126.475 19.0921C124.753 19.2363 125.04 16.6531 124.895 14.4996C124.895 10.0503 122.456 9.33215 120.876 9.1889C120.876 9.1889 121.594 9.04566 122.311 8.7582C123.747 8.3275 125.182 7.17865 125.182 4.73866C125.182 2.44191 123.747 0.575868 120.731 0.575868H113.842V0.719116H115.564V19.0921H113.842V19.2363H119.152V19.0921H117.86V9.33023H119.439C122.31 9.33023 122.31 11.7702 122.455 14.3544C122.599 16.9396 123.316 19.0912 125.757 19.3786V19.3786ZM117.862 0.718155H119.585C121.737 0.574909 122.887 2.29675 122.742 4.59349C122.742 5.45489 122.599 9.33023 119.01 9.18698H117.862V0.718155V0.718155ZM23.122 9.61768C23.122 14.9293 26.7099 19.6661 31.1602 19.6661C35.4662 19.6661 39.1983 14.6419 39.1983 9.61768C39.1983 4.45024 35.7537 0.144208 31.1602 0C26.9983 0 23.122 4.45024 23.122 9.61768ZM25.7062 9.61768C25.7062 5.88559 26.2802 0.144209 31.1611 0.144209C35.8979 0.144209 36.4718 5.88655 36.4718 9.61768C36.6151 12.9191 35.8969 19.5228 31.1611 19.5228C26.8541 19.5228 25.7062 13.9237 25.7062 9.61768ZM73.6504 9.61768C73.6504 14.9293 77.2393 19.6661 81.6886 19.6661C86.1388 19.6661 89.7277 14.6419 89.7277 9.61768C89.7277 4.45024 86.283 0.144208 81.6886 0C77.669 0 73.6504 4.45024 73.6504 9.61768ZM76.2346 9.61768C76.3779 5.88559 76.9518 0.144209 81.6886 0.144209C86.5695 0.144209 87.1435 5.88655 87.1435 9.61768C87.1435 12.9191 86.5686 19.5228 81.6886 19.5228C77.3825 19.5228 76.2346 13.9237 76.2346 9.61768ZM14.9407 19.3786V11.6279H16.376V11.4837H11.0644V11.627H12.6439V15.934C12.6439 17.7981 10.4904 19.3776 8.76762 19.3776C4.31834 19.3776 3.45694 13.7795 3.45694 9.47347C3.45694 7.46418 3.45694 0.143248 8.91183 0.143248C12.5007 0.143248 14.0793 5.31068 14.0793 5.31068V0.143248C13.7928 0.718155 13.2179 1.00464 12.6439 1.00464C11.3518 1.00464 11.0644 1.99128e-06 8.91183 0.143248C4.89228 0.143248 0.8737 4.16279 0.729492 9.47347C0.729492 16.6512 6.18438 19.6651 8.76762 19.6651C10.7779 19.6651 11.7825 18.5182 12.4997 18.0855C13.5053 17.7991 14.9407 19.3786 14.9407 19.3786V19.3786Z" fill="black"/>
<path fill-rule="evenodd" clip-rule="evenodd" d="M66.042 19.3786V11.6279H67.4773V11.4837H62.1666V11.627H63.7462V15.934C63.7462 17.9433 61.7369 19.3776 59.8708 19.3776C55.4206 19.3776 54.5602 13.9237 54.5602 9.61671C54.5602 7.46321 54.5602 0.286477 60.0151 0.286477C63.7471 0.286477 65.1825 5.45392 65.1825 5.45392V0.143236C64.895 0.86139 64.3211 1.00463 63.7471 1.00463C62.455 1.00463 62.1676 0.143236 60.0151 0.143236C55.8523 -9.81442e-06 51.976 4.16278 51.976 9.61671C51.8327 16.7934 57.2866 19.6651 59.8708 19.6651C61.8801 19.6651 62.8848 18.5182 63.7462 18.2307C64.7499 17.799 66.042 19.3786 66.042 19.3786V19.3786ZM155.47 12.9191H149.585L152.601 3.87629L155.47 12.9191ZM163.941 19.2354V19.0912H162.361V1.72279L173.701 19.5228H173.845V0.718144H175.279V0.574895H171.978V0.718144H173.7V14.9293L164.514 0.430686L160.493 0.573935V0.717183H162.217V19.0902H159.918L153.748 0.143236H153.606L147.146 19.0902H143.988V0.718144H145.854V0.574895H141.977L136.954 15.5023L131.642 0.573935H127.911V0.717183H129.49V19.0902H127.911V19.2344H131.499V19.0902H129.777V2.58322L135.805 19.3776H135.949L141.546 2.43998V19.0902H139.967V19.2344H149.155V19.0902H147.431L149.442 13.0613H155.614L157.48 19.0902H155.327V19.2344H163.941V19.2354V19.2354ZM107.097 12.9191H101.068L104.226 3.87629L107.097 12.9191ZM113.986 19.0912H111.689L105.373 0.144197H105.231L98.7713 19.0912H97.0495V19.2354H100.781V19.0912H99.0588L101.068 13.0623H107.24L109.249 19.0912H106.953V19.2354H113.986V19.0912V19.0912ZM176.859 19.0912H175.279V19.2354H180.592V19.0912H179.012V0.718144H180.592V0.574895H175.279V0.718144H176.859V19.0912V19.0912ZM69.3443 19.0912H67.7648V19.2354H73.0754V19.0912H71.6401V0.718144H73.0754V0.574895H67.7648V0.718144H69.3443V19.0912V19.0912ZM18.3852 19.0912H16.8057V19.2354H22.1173V19.0912H20.682V0.718144H22.1173V0.574895H16.8057V0.718144H18.3852V19.0912V19.0912ZM71.6401 23.5414H73.9369C74.7983 23.5414 75.9471 23.5414 75.9471 25.1209C75.9471 26.5573 74.9425 26.8447 74.0811 26.8447H73.2197V29.5712H73.9369V29.7154H71.7843V29.5712H72.3583V23.6866H71.6401V23.5414V23.5414ZM73.9369 26.5563C74.655 26.5563 75.0857 25.9814 75.0857 25.12C75.0857 24.4028 74.7992 23.6856 73.9369 23.6856H73.2197V26.5563H73.9369ZM75.8029 29.7154V29.5712H76.521L78.6746 23.2549L81.1145 29.5712H81.6885V29.7154H79.535V29.5712H80.1099L79.535 27.8494H77.3824L76.6643 29.5712H77.2392V29.7154H75.8029V29.7154ZM77.3824 27.7042H79.3917L78.3871 24.8335L77.3824 27.7042ZM83.5545 29.5702H84.1285V29.7144H82.1182V29.5702H82.5489V23.6856H81.975V23.5414H84.4159C85.1331 23.5414 85.9945 23.8288 85.9945 24.9777C85.9945 25.8381 85.2764 26.2698 84.7024 26.4121C85.5638 26.5563 85.9945 27.1293 85.9945 27.8484V29.1405C85.9945 30.0009 86.7127 29.7154 86.8559 29.5702L86.9992 29.7144C86.5685 29.8567 86.281 29.8567 85.9945 29.8567C85.4206 29.7144 85.1331 29.1395 85.1331 28.4204C85.1331 27.7032 85.1331 27.1283 84.8457 26.8428C84.7024 26.5553 84.4159 26.5553 83.9843 26.5553H83.5536V29.5702H83.5545V29.5702ZM83.5545 26.4121H84.1285C84.7024 26.2698 85.1331 25.6949 85.1331 25.12C85.1331 23.9731 84.7024 23.6856 84.1285 23.6856H83.5545V26.4121ZM88.2922 23.6856H87.7173V23.5414H92.1666V25.4074H92.0243C91.8801 24.8325 91.7369 24.1153 91.1629 23.8279C91.0197 23.6856 90.4448 23.6856 90.1583 23.6856H89.1527V26.5563C90.4448 26.5563 91.0187 26.4121 91.0187 25.2642H91.162V27.9907H91.0187C91.0187 26.6986 90.4438 26.6986 89.1527 26.6986V29.5693H89.5834V29.7135H87.7173V29.5693H88.2922V23.6856V23.6856ZM98.1964 23.5414V23.6856H97.6215V27.5609C97.6215 28.853 97.0485 29.8577 95.7555 29.8577C93.3164 29.8577 93.4587 28.1339 93.4587 27.5609V23.6856H92.8838V23.5414H94.895V23.6856H94.3201V27.9916C94.3201 28.9963 94.6076 29.7154 95.7545 29.7154C96.7611 29.7154 97.334 28.7088 97.334 27.8494V23.6866H96.7611V23.5424H98.1964V23.5414ZM104.513 29.5702H105.088V29.7144H102.934V29.5702H103.509V24.4028L101.498 29.8577L99.4885 24.4028V29.5702H100.063V29.7144H98.6271V29.5702H99.202V23.6856H98.6271V23.5414H100.063L101.929 28.2791L103.651 23.5414H105.088V23.6856H104.513V29.5702ZM106.092 29.8577H105.948V27.8484H106.092C106.235 28.853 106.953 29.8577 108.102 29.8577C108.963 29.8577 109.394 29.1405 109.394 28.4214C109.394 27.5609 108.676 27.1293 108.102 26.987C107.097 26.6995 106.092 26.2698 106.092 25.1209C106.092 24.1163 106.809 23.3991 107.958 23.3991C108.531 23.3991 108.675 23.3991 109.248 23.8288L109.536 23.3991H109.68V25.2652H109.536C109.394 24.4038 108.963 23.5414 107.958 23.5414C107.239 23.5414 106.809 23.9731 106.809 24.6903C106.809 25.6949 107.814 25.8372 108.389 26.1246C109.394 26.4121 110.111 26.8437 110.255 27.8484C110.397 29.1405 109.394 30 108.102 30C107.527 30 106.953 29.7144 106.522 29.427L106.092 29.8577V29.8577Z" fill="black"/>
</svg>
