<svg width="63" height="30" viewBox="0 0 63 30" fill="none" xmlns="http://www.w3.org/2000/svg">
<path d="M0.625977 0.86058H7.22361C8.80132 0.86058 10.3551 0.980102 11.885 1.24304C13.4149 1.48212 14.8491 2.15142 16.1878 3.22711C17.4547 4.3028 18.4348 5.66536 19.1519 7.31476C19.8691 8.96416 20.2515 10.6614 20.3233 12.4303C20.3472 12.5498 20.3472 12.6694 20.3472 12.8128V13.4582C20.3233 15.2749 19.9408 17.0438 19.2236 18.741C18.5065 20.4383 17.4786 21.8486 16.0921 22.9482C14.873 23.8327 13.5822 24.4064 12.1957 24.6693C10.8331 24.9322 9.39886 25.0996 7.9646 25.1474H0.625977V0.86058ZM5.45469 20.7729C5.62204 20.7729 5.78939 20.7729 5.98057 20.7968H6.96067C7.12802 20.8207 7.24751 20.8447 7.39096 20.8447H7.79735C8.03643 20.8447 8.25154 20.8208 8.49058 20.8208C8.72966 20.8208 8.96867 20.7969 9.20771 20.7729C9.92484 20.7012 10.6181 20.5817 11.3113 20.3905C11.9806 20.1754 12.5782 19.8885 13.0802 19.4583C13.8452 18.8128 14.4428 17.9045 14.8252 16.8048C15.2316 15.6813 15.4467 14.5339 15.4467 13.3387V13.2431V13.0996V12.9562V12.8367C15.4467 11.6415 15.2316 10.494 14.8491 9.39445C14.4667 8.27093 13.8929 7.36256 13.1519 6.66936C12.6021 6.16734 11.9806 5.80878 11.2635 5.61757C10.5702 5.42632 9.82925 5.33073 9.06426 5.2829C8.89694 5.259 8.72959 5.259 8.56224 5.259H5.45466V20.7729H5.45469V20.7729ZM33.9487 24.765L32.4906 23.02C31.8452 23.5936 31.1281 24.0718 30.2913 24.4542C29.4786 24.8367 28.618 25.0519 27.7814 25.1235C27.6858 25.1235 27.614 25.1474 27.5184 25.1474H27.2555C27.0643 25.1474 26.897 25.1235 26.7057 25.1235L26.1321 25.0518C25.7735 24.9801 25.4149 24.8845 25.0325 24.765C24.6739 24.6215 24.3392 24.4542 24.0046 24.2629C23.407 23.8565 22.9289 23.3067 22.5703 22.6374C22.2118 21.9681 21.9727 21.2749 21.901 20.5817V20.3426V20.1035V19.9123V19.6972C21.901 19.6733 21.9249 19.6493 21.9249 19.6493C21.9488 19.6015 21.9488 19.6015 21.9488 19.5538V19.4343C21.9727 19.3864 21.9727 19.3386 21.9727 19.3147C22.1639 18.263 22.5942 17.4024 23.2875 16.7092C24.0046 16.0159 24.7696 15.4184 25.6062 14.8925C25.0803 14.3188 24.65 13.7211 24.3154 13.0757C23.9568 12.4542 23.7895 11.7849 23.7895 11.1156C23.7895 10.9721 23.7895 10.8526 23.8134 10.6853C23.8373 10.5658 23.8373 10.4223 23.8612 10.3029L23.933 10.016C23.9569 9.9204 23.9808 9.82478 24.0047 9.75305C24.2915 8.82078 24.8653 8.15144 25.7019 7.74509C26.5386 7.3148 27.423 7.09968 28.3553 7.09968C29.5505 7.09968 30.6263 7.41042 31.6063 8.05585C32.5864 8.70129 33.0884 9.63356 33.0884 10.8766V11.1873C33.0167 11.9523 32.7298 12.6216 32.2279 13.1952C31.7258 13.745 31.2 14.2471 30.6263 14.7012C30.4828 14.773 30.3633 14.8447 30.2438 14.9403C30.1243 15.0359 30.0047 15.1076 29.8852 15.2032L32.8494 18.6694C33.0167 18.526 33.1601 18.3587 33.3036 18.2152C33.4709 18.0718 33.5904 17.9284 33.7339 17.7611C34.0207 17.4742 34.3315 17.1634 34.6183 16.8527C34.9052 16.542 35.192 16.2312 35.455 15.9205L37.439 18.0001C37.2 18.2392 36.9848 18.4782 36.7458 18.7173C36.5306 18.9324 36.3154 19.1714 36.1004 19.4344C35.8374 19.6495 35.6223 19.8886 35.3832 20.1276C35.1681 20.3667 34.9529 20.6057 34.7378 20.8209L37.9888 24.7651H33.9487V24.765V24.765ZM25.5344 21.1076C25.7256 21.3467 25.9168 21.5618 26.0842 21.7291C26.2754 21.8965 26.4666 22.016 26.6578 22.1116C26.8491 22.2311 27.0403 22.3028 27.2315 22.3506C27.4228 22.3985 27.5901 22.4224 27.7813 22.4224C28.1638 22.4224 28.5463 22.3268 28.881 22.1833C29.2156 22.0399 29.5264 21.8486 29.8132 21.6335C30.0523 21.4662 30.363 21.2032 30.6738 20.8925L27.3511 16.9244C27.2555 16.9722 27.1838 17.02 27.112 17.0678C27.0403 17.1157 26.9685 17.1635 26.9208 17.2113C26.5622 17.522 26.2276 17.8567 25.9168 18.2392C25.6061 18.6216 25.367 19.0042 25.2475 19.4344C25.2236 19.53 25.1997 19.6256 25.1758 19.7212C25.1519 19.8407 25.1519 19.9602 25.1519 20.0559C25.1519 20.2471 25.1758 20.4144 25.2475 20.6057C25.3193 20.7729 25.4149 20.9403 25.5344 21.1076V21.1076ZM28.1878 13.4821C28.2117 13.4821 28.2356 13.4582 28.2595 13.4582C28.2834 13.4343 28.2834 13.4343 28.3312 13.4104C28.3551 13.3865 28.379 13.3865 28.4029 13.3387H28.4508C28.8094 13.0757 29.1679 12.7889 29.4786 12.502C29.7894 12.2152 29.9806 11.8327 30.1001 11.3785V11.0438C30.1001 10.5658 29.9089 10.1594 29.5743 9.8725C29.2635 9.58563 28.881 9.41831 28.4985 9.34662H28.1161C27.8293 9.37052 27.5424 9.51397 27.2555 9.72908C26.9925 9.94423 26.8491 10.255 26.8013 10.6853V10.757C26.7774 10.7809 26.7774 10.8048 26.7774 10.8526V10.9244C26.7535 10.9483 26.7535 10.9722 26.7535 11.02C26.7535 11.3786 26.8491 11.7371 27.0642 12.0478C27.2555 12.3585 27.4945 12.6694 27.7096 12.9562C27.8291 13.0518 27.9009 13.1474 27.9726 13.2191C28.0443 13.3148 28.116 13.4104 28.1878 13.4821V13.4821ZM62.7296 11.9283V12.7411C62.7296 14.9163 62.3711 16.9721 61.6301 18.8845C60.913 20.8208 59.5026 22.3746 57.3751 23.5459C56.7058 24.0001 55.9647 24.3108 55.152 24.5737C54.3392 24.7889 53.5265 24.9802 52.7376 25.0758C52.4269 25.0997 52.164 25.1236 51.901 25.1236C51.6142 25.1236 51.3512 25.1475 51.0882 25.1475H50.6102C50.4667 25.1475 50.3234 25.1236 50.1561 25.0997C48.1958 24.9802 46.3074 24.4543 44.4907 23.4981C42.674 22.5658 41.1919 21.275 40.0684 19.6973C39.5186 18.8367 39.0883 17.9045 38.7537 16.9483C38.419 15.9921 38.18 15.012 38.0843 14.0081C38.0604 13.8168 38.0365 13.6016 38.0126 13.3865C38.0126 13.1714 37.9888 12.9562 37.9888 12.7411C37.9888 10.3985 38.6103 8.19927 39.8055 6.09569C41.0246 3.9682 42.7457 2.39053 44.9449 1.2909C45.423 1.05186 45.9011 0.860615 46.403 0.717196C46.9051 0.573777 47.407 0.430324 47.9329 0.310803C48.4349 0.191282 48.913 0.119556 49.415 0.0717607C49.893 0.0238974 50.3949 0 50.8492 0H51.2077C53.1201 0.0478291 54.9607 0.502017 56.7535 1.33867C58.5464 2.19925 60.1002 3.37056 61.391 4.85261L57.8771 7.41038C56.9209 6.45418 55.9169 5.73709 54.8174 5.21117C53.7416 4.68526 52.5942 4.42232 51.3751 4.42232C50.9688 4.42232 50.5624 4.47015 50.156 4.49405C49.7257 4.56574 49.2954 4.63746 48.8652 4.73309C47.0724 5.2829 45.7099 6.33469 44.8015 7.86457C43.8931 9.39445 43.4389 10.9961 43.4389 12.741V13.1235C43.4628 13.267 43.4867 13.3864 43.5106 13.5299C43.5106 13.6016 43.5106 13.6734 43.5345 13.7211C43.5584 13.7929 43.5584 13.8646 43.5584 13.9363C43.5823 13.9841 43.5823 14.0558 43.6062 14.1275C43.6301 14.1992 43.6301 14.2709 43.6301 14.3188C43.9409 16.2072 44.7537 17.6893 46.0684 18.765C47.3831 19.8407 48.8174 20.4861 50.3473 20.7013C50.5385 20.773 50.7776 20.7969 51.0166 20.8208H51.6859C53.1441 20.8208 54.4349 20.4383 55.5824 19.6495C56.7298 18.8606 57.3035 17.761 57.3035 16.2789L57.3752 16.1355H51.3991V11.9283H62.7296V11.9283ZM17.5264 27.3227H18.4347C19.0801 27.3227 19.63 27.8964 19.63 28.6135C19.63 29.3307 19.0801 29.9043 18.4347 29.9043H17.5263L17.5264 27.3227V27.3227ZM17.9089 27.6335V29.5937H18.3392C18.9128 29.5937 19.2236 29.1156 19.2236 28.6375C19.2236 28.1355 18.9129 27.7291 18.4348 27.6574L17.9089 27.6335V27.6335ZM21.1838 27.2749C21.9726 27.2749 22.5941 27.8726 22.5941 28.6136C22.5941 29.3546 21.9726 29.9761 21.1838 29.9761C20.3949 29.9761 19.7495 29.3546 19.7495 28.6136C19.7495 27.8726 20.395 27.2749 21.1838 27.2749ZM21.1838 27.5857C21.7574 27.5857 22.2116 28.0399 22.2116 28.6135C22.2116 29.1634 21.7574 29.6175 21.1838 29.6175C20.6101 29.6175 20.1559 29.1634 20.1559 28.6135C20.1559 28.0399 20.6101 27.5857 21.1838 27.5857ZM22.7137 27.3227H23.0961V29.5936H23.8372V29.9043H22.7137V27.3227V27.3227ZM25.0563 27.251C25.3431 27.251 25.63 27.3466 25.869 27.4901V27.9681C25.6778 27.7291 25.367 27.5857 25.0563 27.5857C24.4826 27.5857 24.0284 28.0399 24.0284 28.6135C24.0284 29.1634 24.4826 29.6414 25.0563 29.6414C25.367 29.6414 25.6778 29.4979 25.869 29.259V29.7371C25.63 29.9044 25.3431 29.9761 25.0563 29.9761C24.2913 29.9761 23.6459 29.3546 23.6459 28.6135C23.6459 27.8725 24.2913 27.251 25.0563 27.251ZM26.371 29.5937H27.3032V29.9044H25.9885V27.3228H27.3032V27.6335H26.371V28.3746H27.3032V28.6853H26.371V29.5937V29.5937ZM28.7376 29.7371C28.7137 29.7849 28.6659 29.8088 28.5941 29.8327C28.5463 29.8565 28.4985 29.8805 28.4268 29.9044H28.2356C28.1877 29.8805 28.1639 29.8565 28.1161 29.8327C28.0922 29.8088 28.0683 29.7609 28.0205 29.7132C28.0205 29.6654 27.9966 29.6176 27.9726 29.5937V29.5698V29.5459V29.5221H27.9965V29.4981V29.4743C28.0204 29.4025 28.0444 29.3548 28.0922 29.283C28.1639 29.2591 28.2117 29.2113 28.2834 29.1635C28.2595 29.1157 28.2117 29.0679 28.1878 29.0201C28.1639 28.9962 28.1399 28.9484 28.1399 28.9006V28.8767V28.8528V28.8289H28.1638C28.1638 28.7572 28.2117 28.7333 28.2594 28.6854C28.3072 28.6376 28.3551 28.6376 28.4029 28.6376H28.4507C28.5224 28.6376 28.5941 28.6615 28.6419 28.7093C28.6897 28.7572 28.7137 28.805 28.7137 28.9006C28.7137 28.9723 28.7137 29.0201 28.6658 29.0679C28.5941 29.1396 28.5463 29.1635 28.4985 29.2114L28.7853 29.5461C28.7853 29.5222 28.8093 29.4743 28.857 29.4505C28.881 29.4026 28.881 29.3787 28.9287 29.3548L29.0005 29.4505C29.0005 29.4743 28.9766 29.4983 28.9526 29.5222C28.9287 29.5461 28.9048 29.5939 28.881 29.6178H28.857V29.6417L29.0483 29.8807H28.881L28.7376 29.7371V29.7371ZM28.4029 29.7849C28.4507 29.7849 28.4985 29.761 28.5464 29.7371L28.642 29.6415H28.6658V29.6176L28.3551 29.259C28.3551 29.2829 28.3551 29.2829 28.3312 29.2829C28.2834 29.3068 28.2834 29.3307 28.2595 29.3307C28.2117 29.3546 28.2117 29.3786 28.1878 29.4025C28.1639 29.4025 28.1639 29.4264 28.1639 29.4503V29.4742C28.14 29.4981 28.14 29.5221 28.14 29.5221V29.5459C28.14 29.6176 28.1639 29.6654 28.2117 29.7133C28.2596 29.7611 28.3073 29.785 28.379 29.785L28.4029 29.7849ZM28.2834 28.8765V28.9004C28.2834 28.9243 28.2834 28.9483 28.3073 28.9961C28.3312 29.0199 28.3552 29.0439 28.3552 29.0678C28.3791 29.0678 28.3791 29.0678 28.403 29.0917H28.4269C28.4747 29.0678 28.4986 29.0678 28.5225 29.0199C28.5464 28.9961 28.5704 28.9721 28.5943 28.9243V28.9004C28.5943 28.8526 28.5704 28.8287 28.5464 28.8048C28.5225 28.7809 28.4747 28.757 28.4508 28.757H28.4269C28.403 28.757 28.3552 28.757 28.3313 28.8048C28.3073 28.8048 28.2834 28.8287 28.2834 28.8765V28.8765ZM31.1281 27.251C31.63 27.251 32.0842 27.514 32.3472 27.8964L32.0125 28.0637C31.8213 27.7769 31.5105 27.5857 31.1281 27.5857C30.5544 27.5857 30.1002 28.0399 30.1002 28.6135C30.1002 29.1872 30.5544 29.6414 31.1281 29.6414C31.6061 29.6414 31.9886 29.4024 32.0364 28.9004H31.1998V28.6135H32.4428C32.4428 28.6135 32.4428 27.8247 32.4428 28.6135C32.4428 29.4263 31.9886 30 31.1281 30C30.2436 30 29.6938 29.3785 29.6938 28.6135C29.6938 27.8487 30.3392 27.251 31.1281 27.251ZM32.2276 29.9044L33.2794 27.3227H33.5424L34.5942 29.9044H34.1878L33.901 29.1634H32.9209L32.634 29.9044H32.2276V29.9044ZM33.0643 28.8526L33.4228 27.9203L33.7575 28.8526H33.0643V28.8526ZM38.3471 29.9044L39.399 27.3227H39.6619L40.7137 29.9044H40.3073L40.0205 29.1634H39.0404L38.7536 29.9044H38.3471V29.9044ZM39.1838 28.8526L39.5424 27.9203L39.901 28.8526H39.1838V28.8526ZM43.4387 29.9044L44.5145 27.3227H44.7536L45.8292 29.9044H45.4228L45.1121 29.1634H44.1559L43.8452 29.9044H43.4387V29.9044ZM44.2993 28.8526L44.6341 27.9203L44.9926 28.8526H44.2993ZM35.5264 27.6335C35.7894 27.6574 35.885 27.753 35.885 28.016C35.885 28.2789 35.6937 28.3984 35.4786 28.3984H35.1439V27.6334L35.5264 27.6335V27.6335ZM35.5503 28.7092H35.5742C35.7655 28.7092 36.1001 28.7571 36.1001 29.1634C36.1001 29.522 35.8133 29.5937 35.5264 29.5937H35.5743H35.144V28.7092H35.5503V28.7092ZM35.0483 29.9044H35.7177C36.1718 29.9044 36.5065 29.5937 36.5065 29.1634C36.5065 28.8287 36.2914 28.5897 36.0045 28.4941C36.1718 28.3746 36.2674 28.1834 36.2674 27.9682C36.2674 27.5857 36.0045 27.3228 35.622 27.3228H34.9767H34.7377V29.9044L35.0483 29.9044V29.9044ZM37.4866 27.6335C37.7257 27.6574 37.8213 27.753 37.8452 28.016C37.8452 28.2789 37.654 28.3984 37.4388 28.3984H37.1041V27.6334L37.4866 27.6335V27.6335ZM37.5105 28.7092C37.7017 28.7092 38.0364 28.7571 38.0364 29.1634C38.0364 29.522 37.7496 29.5937 37.4627 29.5937H37.5344H37.1042V28.7092H37.5105V28.7092ZM37.0085 29.9044H37.6778C38.132 29.9044 38.4428 29.5937 38.4428 29.1634C38.4428 28.8287 38.2515 28.5897 37.9646 28.4941C38.132 28.3746 38.2276 28.1834 38.2276 27.9682C38.2276 27.5857 37.9646 27.3228 37.5822 27.3228H36.6978V29.9044L37.0085 29.9044V29.9044ZM40.9049 27.3227H41.144L42.9607 29.235V27.3227H43.2954V29.9044H43.0324L41.2635 28.016V29.9044H40.9049V27.3227V27.3227Z" fill="black"/>
</svg>
