<svg width="151" height="30" viewBox="0 0 151 30" fill="none" xmlns="http://www.w3.org/2000/svg">
<path fill-rule="evenodd" clip-rule="evenodd" d="M135.853 0.593262H150.6V2.94296C150.172 2.79948 149.723 2.72556 149.272 2.72401H140.794V13.7046H149.04C149.632 13.7046 150.16 13.6386 150.6 13.5291V15.8675C150.226 15.7814 149.71 15.7371 149.074 15.7371H140.794V27.0904H149.018C149.468 27.0904 150.008 27.0244 150.6 26.8827V29.4079H135.875C135.985 28.9893 136.051 28.5402 136.051 28.0467V1.98746C136.051 1.41674 135.985 0.944228 135.853 0.593262ZM132.437 8.07142L128.177 8.03842C127.967 5.64525 126.595 3.32774 123.576 2.89949C117.108 2.3175 115.284 9.42216 115.449 14.6158C115.614 19.6227 116.416 27.3206 123.092 27.3206C125.892 27.3206 128.582 24.4437 128.496 22.0159L132.437 21.9845C132.151 26.9906 126.407 29.8893 123.673 29.9883C114.33 30.3071 110.419 24.0798 110.223 15.197C110.046 7.14812 113.34 0 122.576 0C130.484 0.110281 132.008 4.78795 132.437 8.07142V8.07142ZM65.9833 26.1333L68.8055 23.7731C70.277 26.2009 71.4852 27.3094 74.4057 27.3094C77.3704 27.3094 79.8642 25.5078 79.8642 22.3242C79.8642 20.7537 79.2258 19.469 77.9636 18.5038C77.3929 18.0522 75.9432 17.273 73.6595 16.1863C70.244 14.5498 66.917 12.4199 66.917 8.13742C66.917 2.73528 71.507 0.352572 76.3489 0.176283C79.2154 0.0668077 82.7725 1.64857 84.2118 3.42675L81.3453 5.63397C80.8342 4.68019 80.0744 3.88261 79.1465 3.32591C78.2186 2.7692 77.1573 2.47414 76.0752 2.47206C72.4182 2.47206 69.5195 6.71022 72.5502 9.63145C73.319 10.3785 74.8895 11.3001 77.2826 12.3989C81.1046 14.1892 84.3655 16.3304 84.3655 21.0628C84.3655 22.6977 83.9381 24.2247 83.0921 25.6189C81.3896 28.4299 78.5456 29.8354 74.5715 29.8354C70.0017 29.8345 69.1017 28.7921 65.9833 26.1333V26.1333ZM25.7719 0.593262H40.5084V2.94296C40.08 2.79929 39.6313 2.72536 39.1794 2.72401H30.7023V13.7046H38.9484C39.5417 13.7046 40.0689 13.6386 40.5084 13.5291V15.8675C40.1349 15.7814 39.6189 15.7371 38.9927 15.7371H30.7023V27.0904H38.9267C39.3767 27.0904 39.9152 27.0244 40.5076 26.8827V29.4079H25.7936C25.8926 28.9893 25.9586 28.5402 25.9586 28.0467V1.98746C25.9586 1.41674 25.8926 0.944228 25.7719 0.593262ZM0 0.593262H5.35868V0.856483C5.35868 1.09878 5.43595 1.41674 5.56716 1.82325L13.1218 24.5644L20.8736 1.72424C20.9944 1.33947 21.0604 0.966767 21.0604 0.593262H23.6621C23.3988 1.05451 23.2008 1.46102 23.0801 1.82325L14.2294 28.2327C14.1417 28.4838 14.0644 28.8807 13.9984 29.4071H9.60569C9.5396 29.0081 9.44051 28.6153 9.30946 28.2327L0.637535 2.03174C0.538524 1.79025 0.330037 1.296 0.0112695 0.593262H0ZM56.9129 15.6156C60.4266 14.9241 63.1168 12.2331 63.1168 8.39019C63.1168 3.34947 58.9012 0.593262 54.1784 0.593262H45.5475C45.6683 1.03277 45.7343 1.49402 45.7343 1.977V28.0234C45.7343 28.5828 45.6683 29.0545 45.5475 29.4071H50.6865C50.5614 28.9566 50.4988 28.491 50.5005 28.0234V16.0543L52.1475 16.2306L60.7566 29.4071H65.9285L56.9129 15.6156ZM56.0234 13.4188C55.0904 14.0781 53.9699 14.4073 52.686 14.4073H50.4892V2.6902H52.4542C54.1349 2.6902 55.4406 3.10798 56.3744 3.94193C57.6486 5.09545 58.2966 6.65468 58.2966 8.60914C58.2966 10.7174 57.5384 12.3208 56.0234 13.4188V13.4188ZM109.367 28.2101L99.7702 1.54876C99.6633 1.24063 99.6005 0.918962 99.5835 0.593262H95.4331C95.4331 0.933763 95.3783 1.296 95.2463 1.65823L85.9465 28.2101C85.8258 28.5941 85.6277 28.9885 85.3645 29.4063H88.0434C88.0271 29.001 88.083 28.5959 88.2085 28.2101L90.9631 20.3802H101.56L104.283 28.2101C104.426 28.6376 104.492 29.032 104.492 29.4063H110.048C109.73 28.9571 109.499 28.5498 109.367 28.2101V28.2101ZM91.6875 18.2615L96.168 5.2492L100.768 18.2615H91.6875Z" fill="black"/>
</svg>
