<svg width="174" height="30" viewBox="0 0 174 30" fill="none" xmlns="http://www.w3.org/2000/svg">
<path fill-rule="evenodd" clip-rule="evenodd" d="M155.255 15.8852C159.047 15.8852 162.404 17.5453 162.404 22.5635C162.404 26.7142 158.215 29.2779 155.833 29.2779C151.357 29.2779 148.685 25.9937 148.685 22.5635C148.685 18.557 151.465 15.8852 155.255 15.8852ZM154.967 16.5353C157.277 16.5353 159.371 19.2054 159.696 22.4904C160.021 25.7755 158.432 28.4474 156.121 28.4474C153.847 28.4474 151.753 25.7755 151.429 22.4904C151.104 19.2054 152.693 16.5353 154.967 16.5353V16.5353ZM40.5998 29.0605V28.6647C41.9352 28.6647 43.0552 28.4843 43.0552 27.5808V18.52C43.0552 18.2676 43.0552 17.942 42.6585 17.942L40.3482 18.52V18.1945L45.4737 16.1728H45.6901V19.7455C47.0617 18.2657 48.5414 16.3171 49.5883 16.3171C51.1772 16.3171 51.4297 18.0132 50.7074 18.7355C49.8408 19.5281 48.9752 19.1332 48.4332 18.5191C48.1086 18.2306 47.4945 18.4831 47.0256 18.9168C46.3403 19.7455 45.8344 20.3235 45.6901 21.3353V27.5438C45.6901 28.6638 46.701 28.6638 48.5414 28.6638V29.0596H40.5998V29.0605V29.0605ZM163.124 29.0605V28.6647C164.497 28.6647 165.615 28.4843 165.615 27.5808V18.52C165.615 18.2676 165.615 17.942 165.183 17.942L162.907 18.52V18.1945L167.997 16.1728H168.214V19.7455C169.586 18.2657 171.102 16.3171 172.114 16.3171C173.738 16.3171 173.954 18.0132 173.232 18.7355C172.403 19.5281 171.5 19.1332 170.958 18.5191C170.669 18.2306 170.02 18.4831 169.551 18.9168C168.865 19.7455 168.395 20.3235 168.215 21.3353V27.5438C168.215 28.6638 169.226 28.6638 171.103 28.6638V29.0596H163.124V29.0605V29.0605ZM3.59759 25.1262C1.17912 21.6238 0.565017 18.5201 0.601086 14.2602C0.781431 12.5992 1.06998 10.5775 1.82836 8.84523C3.12777 5.92087 5.11341 3.21384 8.21812 1.76923C10.9251 0.397686 15.6548 -0.143347 19.1202 0.866585C19.8777 1.083 20.7442 1.48068 21.5387 1.48068C21.7912 1.19213 21.9715 0.722308 22.0797 0.28948H22.6208L24.8228 9.56661L24.6064 9.53054C23.4873 6.64225 22.4404 4.36805 19.7695 2.2742C18.7225 1.62403 17.7117 1.083 16.3401 0.902655C12.9108 0.541965 9.22898 3.14078 7.42275 5.84873C5.51017 9.27806 5.04035 13.9356 5.65445 17.7977C6.80958 22.852 9.30019 27.9785 15.3653 28.1588C18.434 28.1588 22.802 26.3905 25.4008 22.9963C25.4739 23.1045 25.5451 23.1406 25.5812 23.2127C24.8228 25.0171 21.7902 27.6168 20.8885 28.0497C18.7586 29.4934 16.4483 30.0344 13.0551 29.9983C9.2299 30.0002 6.01606 28.1588 3.59759 25.1262V25.1262ZM62.4419 29.2409C61.7556 29.2409 59.8421 28.7729 59.228 28.267L58.7952 24.1144L59.1559 24.0784C59.3002 25.3066 59.6609 26.0289 60.1307 27.147C61.2137 29.1687 65.7621 29.6016 65.7621 26.0289C65.7621 23.2849 60.0585 23.5383 60.0585 19.5661C60.0585 17.2919 61.8999 15.8852 63.7043 15.9212C65.0046 15.8852 65.726 16.0294 66.7368 16.2828C67.0254 16.5353 67.0254 16.355 66.9893 16.0664H67.3861L67.7838 20.1811H67.4592C67.3128 19.2851 67.02 18.4193 66.5926 17.6183C66.2319 17.0042 65.7981 16.5723 64.9685 16.3559C62.6573 16.1395 61.6113 17.7265 62.1163 19.0981C62.5501 20.2181 63.8495 20.8322 64.8603 21.4823C66.809 22.7087 68.3257 23.5762 68.1093 26.1389C67.8208 28.9162 64.68 29.2409 62.4419 29.2409V29.2409ZM73.0184 29.2409C71.719 29.2409 71.0337 28.0506 71.0337 26.1741V18.7013C70.9976 18.1233 71.1419 17.2567 70.5639 16.9672H68.7956V16.7508L71.0337 16.2468V14.0438L73.4522 11.9499V16.2468C74.6434 16.2107 75.9428 16.2468 77.2061 16.2468V16.9672H73.4522C73.4882 20.108 73.4522 22.7799 73.4522 26.0298C73.4161 27.9424 73.5604 28.1958 74.5352 28.2319C75.6542 28.2679 76.2313 28.0515 77.2061 27.3644V27.5447C76.2313 28.5565 74.968 29.2409 73.0184 29.2409ZM23.922 29.0605V28.7008C24.6795 28.7008 25.7995 28.6647 26.3044 28.4122C26.8824 28.1958 27.4235 27.6538 27.4235 26.138V3.86309C27.4235 3.43026 27.6038 2.05779 26.8824 1.8053C26.3775 1.6971 26.0159 1.8053 25.583 1.94958L25.005 2.12992V1.80438L29.5904 0H29.8789V18.4118C29.8789 18.6283 29.8789 18.7735 30.0593 18.6283C30.457 18.2666 30.7446 18.0142 31.1423 17.6525C32.623 16.3901 33.8863 15.6308 36.2687 16.5344C37.3517 17.0024 37.7133 18.0863 37.7133 19.025V26.7854C37.7133 28.6638 38.5429 28.6638 39.9154 28.6638C39.9154 28.772 39.8793 28.9514 39.9154 29.0596C37.6773 29.0596 35.4391 29.0254 33.1649 29.0596V28.6638C34.4643 28.6638 35.367 28.6638 35.367 26.7133V19.1341C35.367 18.0863 34.5725 17.5083 33.3453 17.4001C32.0098 17.4361 30.5661 18.5922 29.8799 19.4939V26.1741C29.8799 28.7738 30.8547 28.6286 32.0098 28.6286V29.0605H23.922V29.0605ZM94.1373 29.2409C93.3447 29.2409 92.369 28.4122 92.3329 27.3644C91.3572 27.9785 89.8062 29.2409 87.7845 29.2409C86.6654 29.2409 85.9071 28.8811 85.2569 27.9785C84.6437 26.7503 84.8962 25.3426 85.7989 24.6925C87.9288 23.1406 90.203 22.3101 92.3329 21.4083V18.0863C92.369 17.2558 92.0073 16.5705 91.2869 16.318C89.9144 15.9564 88.7241 16.8581 88.6511 18.1224C88.7232 18.52 88.7574 18.8447 88.7232 19.2044C88.3977 20.9746 85.9071 20.7221 86.2317 18.7725C87.1343 15.9203 90.5285 15.3783 93.0191 16.318C94.3537 17.0745 94.7153 17.8338 94.9317 19.4208V27.3634C94.8956 28.9514 96.6279 28.9153 97.3141 27.7611H97.4584C96.664 29.4582 94.9317 29.2409 94.1373 29.2409ZM88.1091 25.9216C88.1091 24.0432 89.9496 22.7808 92.332 22.1297V25.3075C92.332 25.8855 92.332 26.3914 92.1156 26.7512C90.7089 28.5204 88.3255 28.4483 88.1091 25.9216V25.9216ZM50.6001 29.0605C50.5641 28.9163 50.5641 28.7729 50.5641 28.6647C52.6579 28.6647 53.5245 28.4483 53.5245 26.6051V18.8807C53.5245 17.5804 52.9835 17.869 51.6831 17.9772V17.7247L55.5462 16.1728H55.943V26.5338C55.943 28.3743 56.5931 28.6638 58.109 28.6638V29.0596H50.6001V29.0605ZM76.7733 29.0605C76.7372 28.9163 76.7733 28.7729 76.7733 28.6647C78.8671 28.6647 79.7337 28.4483 79.7337 26.6051V18.8807C79.7337 17.5804 79.1557 17.869 77.8563 17.9772V17.7247L81.7554 16.1728H82.117V26.5338C82.117 28.3743 82.8024 28.6638 84.3191 28.6638V29.0596H76.7733V29.0605V29.0605ZM140.022 29.0605C139.986 28.9163 140.022 28.7729 140.022 28.6647C142.116 28.6647 142.946 28.4483 142.946 26.6051V18.8807C142.946 17.5804 142.404 17.869 141.104 17.9772V17.7247L145.004 16.1728H145.365V26.5338C145.365 28.3743 146.05 28.6638 147.531 28.6638V29.0596H140.022V29.0605V29.0605ZM113.091 29.0605V28.3401C115.257 28.3401 116.628 28.3401 116.628 25.7773V4.76666C116.628 2.74494 114.643 2.74495 111.429 2.74495V2.02264H120.094C126.339 2.02264 127.639 2.02264 131.501 2.74495C137.964 4.58632 140.202 8.95437 140.202 15.9222C140.202 25.7773 134.064 29.2418 125.762 29.0615H113.091V29.0605V29.0605ZM29.9872 10.5414V10.2529H30.1314V10.5414H29.9872ZM54.7518 9.56661C55.5101 9.56661 56.1594 10.1807 56.1594 10.9742C56.1594 11.7677 55.5092 12.4188 54.7518 12.4188C54.369 12.4176 54.0023 12.265 53.7316 11.9944C53.461 11.7237 53.3084 11.357 53.3072 10.9742C53.3081 10.1807 53.9582 9.56661 54.7518 9.56661ZM80.9249 9.56661C81.7184 9.56661 82.3686 10.1807 82.3686 10.9742C82.3686 11.7677 81.7184 12.4188 80.9249 12.4188C80.5422 12.4176 80.1754 12.265 79.9048 11.9944C79.6341 11.7237 79.4815 11.357 79.4803 10.9742C79.4803 10.1807 80.1305 9.56661 80.9249 9.56661V9.56661ZM144.172 9.56661C144.967 9.56661 145.579 10.1807 145.579 10.9742C145.579 11.7677 144.967 12.4188 144.172 12.4188C143.378 12.4188 142.729 11.7687 142.729 10.9742C142.73 10.1807 143.378 9.56661 144.172 9.56661ZM105.835 29.0605V28.6647C106.989 28.6647 107.639 28.6647 107.639 27.4726L107.675 19.53C107.35 15.6678 103.595 18.7374 102.151 20.1441V19.1684C103.343 18.0502 104.967 16.1737 106.627 16.1737C108.938 16.2098 110.058 17.1476 110.094 19.5661V27.5447C110.094 28.6647 110.6 28.6647 112.476 28.6647V29.0605H105.835ZM97.9282 29.0605V28.6647C99.0824 28.6647 99.7326 28.6647 99.7326 27.4726V18.52C99.7326 18.2676 99.7326 17.8699 99.1185 17.942L97.6748 18.1945V17.8699L101.934 16.1737H102.15V27.5447C102.15 28.6647 102.692 28.6647 104.533 28.6647V29.0605H97.9282V29.0605ZM120.744 5.16342C120.744 2.74402 122.007 2.74402 123.127 2.74402C132.476 2.74402 135.618 4.80181 135.618 15.5596C135.618 26.138 132.368 28.3391 123.127 28.3391C122.007 28.3391 120.744 28.3391 120.744 25.9567V5.16342Z" fill="black"/>
</svg>
