<svg width="371" height="30" viewBox="0 0 371 30" fill="none" xmlns="http://www.w3.org/2000/svg">
<path fill-rule="evenodd" clip-rule="evenodd" d="M188.739 4.15751H167.329V12.9009H187.038V16.2782H167.329V25.8003H189.013V29.2213H162.498V0.781779H188.739V4.15751V4.15751ZM200.265 0.781779V25.8003H218.603V29.2213H195.543V0.781779H200.265V0.781779ZM242.265 0.781779V14.5473L259.666 0.781779H266.416L251.43 12.3396L266.799 29.2213H260.598L247.859 14.9351L242.263 19.2662V29.2213H237.321V0.781779H242.265V0.781779ZM270.259 5.19571C267.788 7.92256 266.525 11.1701 266.525 14.9789C266.525 18.8315 267.788 22.0775 270.259 24.8043C273.388 28.2676 277.947 29.9984 284.094 29.9984C290.246 29.9984 294.799 28.2676 297.821 24.8043C300.401 22.0775 301.664 18.8315 301.664 14.9789C301.664 11.1701 300.401 7.92256 297.821 5.19571C294.801 1.734 290.246 0.00157463 284.094 0.00157463C277.947 0.00313819 273.388 1.734 270.259 5.19571ZM284.094 3.37885C287.938 3.37885 290.958 4.54839 293.262 6.75457C295.513 8.87632 296.611 11.6032 296.611 14.9789C296.611 18.3984 295.511 21.2128 293.262 23.2892C290.958 25.5392 287.936 26.6211 284.094 26.6211C280.144 26.6211 277.122 25.5407 274.927 23.2892C272.676 21.2128 271.58 18.3968 271.58 14.9789C271.58 11.6032 272.676 8.87632 274.927 6.75457C277.231 4.54839 280.251 3.37885 284.094 3.37885ZM308.083 0.781779V29.2213H312.918V17.0146H324.718C329.002 17.0146 331.199 18.6579 331.199 22.0774C331.199 25.5407 331.471 27.922 331.966 29.2198H338.005V28.5693C336.797 28.0502 336.25 27.098 336.25 25.7565L335.863 20.6046C335.809 18.8299 335.318 17.4446 334.437 16.6644C333.941 16.1453 332.954 15.6262 331.584 15.1931C334.875 13.6796 336.521 11.3843 336.521 8.44165C336.521 3.29129 332.571 0.780216 324.72 0.780216H308.083V0.781779ZM312.918 4.02773H324.994C329.386 4.02773 331.582 5.62881 331.582 8.78876C331.582 12.1223 329.111 13.7671 324.28 13.7671H312.918V4.02773V4.02773ZM356.56 3.37885C350.96 3.37885 348.213 5.02371 348.213 8.35722C348.213 10.2179 349.696 11.3874 352.552 11.9081L362.874 13.7687C368.254 14.8507 371 17.3602 371 21.3426C371 24.4603 369.463 26.6681 366.278 28.1831C363.808 29.4387 360.678 30 356.944 30C352.276 30 348.602 29.0478 346.022 27.2731C343.551 25.5423 342.397 23.1594 342.397 20.0448H346.956C346.956 22.423 348.053 24.1585 350.139 25.325C351.894 26.235 354.089 26.6681 356.835 26.6681C363.149 26.6681 366.278 25.1076 366.278 21.8617C366.278 20.3904 365.729 19.3084 364.686 18.658C363.699 18.0106 361.666 17.3602 358.648 16.8833L351.235 15.4996C346.131 14.5473 343.551 12.338 343.551 8.78876C343.551 6.40903 344.592 4.37328 346.514 2.81597C348.764 0.911558 351.894 0.00313733 356.01 0.00313733C364.906 0.00313733 369.57 3.03331 370.12 9.0921H365.507C365.454 7.1439 364.357 5.62882 362.435 4.59061C360.843 3.81196 358.864 3.37885 356.56 3.37885V3.37885ZM29.8106 5.32705L19.6556 29.2213H14.823L4.77708 5.32705H4.55696L4.77708 29.2213H0V0.781779H6.97227L17.1828 24.8059H17.4029L27.6135 0.781779H34.5857V29.2213H29.8087L29.9197 5.32705H29.8106V5.32705ZM62.7485 6.27926C60.4978 8.26967 59.4012 11.0841 59.4012 14.7193C59.4012 22.6388 63.2978 26.6211 71.2576 26.6211C76.8576 26.6211 80.316 24.0256 81.6327 18.7455H86.3543C85.4758 23.2892 82.8959 26.5352 78.6681 28.3958C76.3083 29.4793 73.5639 29.9984 70.5437 29.9984C66.0403 29.9984 62.3083 28.8289 59.3992 26.5351C55.9943 23.8505 54.3484 19.9573 54.3484 14.8476C54.3484 10.4321 55.8298 6.83901 58.8499 4.15595C61.868 1.3431 65.9868 0 71.091 0C75.4834 0 79.0508 0.995992 81.7953 2.94419C84.1551 4.58905 85.5274 6.70923 86.0211 9.3063H81.246C80.2565 5.32392 76.8556 3.37573 71.089 3.37573C67.6902 3.37886 64.9437 4.33107 62.7485 6.27926V6.27926ZM97.1696 0.781779V12.5554H116V0.781779H120.775V29.2213H116V15.9311H97.1696V29.2213H92.228V0.781779H97.1696V0.781779ZM139.001 0.781779L125.332 29.2213H130.383L134.115 20.997H148.609L152.232 29.2213H157.447L144.49 0.781779H139.001ZM141.472 5.02372L146.852 17.576H135.708L141.363 5.02372H141.472ZM42.7121 0.781779H47.5983V29.2213H42.7121V0.781779V0.781779Z" fill="black"/>
</svg>
