<svg width="21" height="23" viewBox="0 0 21 23" fill="none" xmlns="http://www.w3.org/2000/svg">
<path d="M19.7167 22.9297L12.0458 14.8936C11.4625 15.4232 10.7819 15.8357 10.0042 16.1311C9.22639 16.4264 8.4 16.5741 7.525 16.5741C5.425 16.5741 3.64583 15.8102 2.1875 14.2825C0.729167 12.7547 0 10.9112 0 8.75191C0 6.59265 0.729167 4.74913 2.1875 3.22135C3.64583 1.69358 5.41528 0.929688 7.49583 0.929688C9.55694 0.929688 11.3118 1.69358 12.7604 3.22135C14.209 4.74913 14.9333 6.59265 14.9333 8.75191C14.9333 9.62784 14.7972 10.4732 14.525 11.288C14.2528 12.1028 13.8444 12.8667 13.3 13.5797L21 21.5852L19.7167 22.9297ZM7.49583 14.7408C9.07083 14.7408 10.4125 14.1551 11.5208 12.9839C12.6292 11.8126 13.1833 10.4019 13.1833 8.75191C13.1833 7.10191 12.6292 5.69126 11.5208 4.51997C10.4125 3.34867 9.07083 2.76302 7.49583 2.76302C5.90139 2.76302 4.54514 3.34867 3.42708 4.51997C2.30903 5.69126 1.75 7.10191 1.75 8.75191C1.75 10.4019 2.30903 11.8126 3.42708 12.9839C4.54514 14.1551 5.90139 14.7408 7.49583 14.7408Z" fill="#562F7D"/>
</svg>
