<svg width="88" height="79" viewBox="0 0 88 79" fill="none" xmlns="http://www.w3.org/2000/svg">
<path d="M6.5625 17.5H80.9375V6.5625H6.5625V17.5ZM0 6.5625C0 4.8125 0.65625 3.28125 1.96875 1.96875C3.28125 0.656249 4.8125 0 6.5625 0H80.9375C82.6875 0 84.2187 0.656249 85.5312 1.96875C86.8437 3.28125 87.5 4.8125 87.5 6.5625V32.7031H6.5625V63.4375H32.0469V70H6.5625C4.8125 70 3.28125 69.3437 1.96875 68.0312C0.65625 66.7187 0 65.1875 0 63.4375V6.5625ZM56.6562 78.75L38.0625 60.1562L42.7656 55.4531L56.6562 69.3438L82.9063 43.0938L87.5 47.9062L56.6562 78.75ZM6.5625 6.5625V63.4375V60.1562V46.1563V60.375V32.7031V17.5V6.5625Z" fill="#562F7D"/>
</svg>
