<svg width="79" height="79" viewBox="0 0 79 79" fill="none" xmlns="http://www.w3.org/2000/svg">
<path d="M71.75 38.7188C71.3854 29.8958 68.1406 22.4219 62.0156 16.2969C55.8906 10.1719 48.4167 6.92708 39.5938 6.5625V0C44.8438 0.145833 49.7839 1.25781 54.4141 3.33594C59.0443 5.41406 63.1094 8.20313 66.6094 11.7031C70.1094 15.2031 72.8984 19.2682 74.9766 23.8984C77.0547 28.5286 78.1667 33.4688 78.3125 38.7188H71.75ZM53.2656 38.7188C52.901 35.0729 51.4427 31.9922 48.8906 29.4766C46.3385 26.9609 43.2396 25.5208 39.5938 25.1563V18.5938C45.0625 18.9583 49.7109 21.0365 53.5391 24.8281C57.3672 28.6198 59.4635 33.25 59.8281 38.7188H53.2656ZM73.8281 78.8594C64.9323 78.8594 56.0911 76.6719 47.3047 72.2969C38.5182 67.9219 30.625 62.2344 23.625 55.2344C16.625 48.2344 10.9375 40.3411 6.5625 31.5547C2.1875 22.7682 0 13.9271 0 5.03125C0 3.64583 0.473959 2.47917 1.42188 1.53125C2.36979 0.583334 3.53646 0.109375 4.92188 0.109375H20.2344C21.2552 0.109375 22.1484 0.455729 22.9141 1.14844C23.6797 1.84115 24.1719 2.77083 24.3906 3.9375L27.3438 17.7188C27.4896 18.7396 27.4714 19.6693 27.2891 20.5078C27.1068 21.3464 26.724 22.0573 26.1406 22.6406L15.2031 33.6875C19.2865 40.4688 23.862 46.375 28.9297 51.4062C33.9974 56.4375 39.7396 60.7031 46.1563 64.2031L56.5469 53.4844C57.276 52.6823 58.1146 52.1172 59.0625 51.7891C60.0104 51.4609 60.9583 51.4062 61.9062 51.625L74.9219 54.4688C76.0156 54.6875 76.9271 55.2344 77.6562 56.1094C78.3854 56.9844 78.75 58.0052 78.75 59.1719V73.9375C78.75 75.3229 78.276 76.4896 77.3281 77.4375C76.3802 78.3854 75.2135 78.8594 73.8281 78.8594ZM11.9219 27.6719L20.7812 18.7031L18.2656 6.67188H6.5625C6.5625 9.51563 7 12.6328 7.875 16.0234C8.75 19.4141 10.099 23.2969 11.9219 27.6719ZM72.1875 72.2969V60.5938L60.9219 58.2969L52.2812 67.375C55.2708 68.7604 58.5156 69.8906 62.0156 70.7656C65.5156 71.6406 68.9062 72.151 72.1875 72.2969Z" fill="#562F7D"/>
</svg>
