<svg width="97" height="70" viewBox="0 0 97 70" fill="none" xmlns="http://www.w3.org/2000/svg">
<path d="M20.125 69.8906C16.5521 69.8906 13.5078 68.6328 10.9922 66.1172C8.47656 63.6016 7.21875 60.5573 7.21875 56.9844H0V6.5625C0 4.8125 0.65625 3.28125 1.96875 1.96875C3.28125 0.656249 4.8125 0 6.5625 0H69.8906V18.2656H81.375L96.25 38.0625V56.9844H88.4844C88.4844 60.5573 87.2266 63.6016 84.7109 66.1172C82.1953 68.6328 79.151 69.8906 75.5781 69.8906C72.0052 69.8906 68.9609 68.6328 66.4453 66.1172C63.9297 63.6016 62.6719 60.5573 62.6719 56.9844H33.0313C33.0313 60.5573 31.7734 63.6016 29.2578 66.1172C26.7422 68.6328 23.6979 69.8906 20.125 69.8906ZM20.125 63.3281C21.875 63.3281 23.3698 62.7083 24.6094 61.4687C25.849 60.2292 26.4688 58.7344 26.4688 56.9844C26.4688 55.2344 25.849 53.7396 24.6094 52.5C23.3698 51.2604 21.875 50.6406 20.125 50.6406C18.375 50.6406 16.8802 51.2604 15.6406 52.5C14.401 53.7396 13.7813 55.2344 13.7813 56.9844C13.7813 58.7344 14.401 60.2292 15.6406 61.4687C16.8802 62.7083 18.375 63.3281 20.125 63.3281ZM6.5625 50.4219H8.96875C10.2083 48.4531 11.776 46.8854 13.6719 45.7187C15.5677 44.5521 17.6823 43.9688 20.0156 43.9688C22.349 43.9688 24.4818 44.5703 26.4141 45.7734C28.3464 46.9766 29.9323 48.526 31.1719 50.4219H63.3281V6.5625H6.5625V50.4219ZM75.5781 63.3281C77.3281 63.3281 78.8229 62.7083 80.0625 61.4687C81.3021 60.2292 81.9219 58.7344 81.9219 56.9844C81.9219 55.2344 81.3021 53.7396 80.0625 52.5C78.8229 51.2604 77.3281 50.6406 75.5781 50.6406C73.8281 50.6406 72.3333 51.2604 71.0938 52.5C69.8542 53.7396 69.2344 55.2344 69.2344 56.9844C69.2344 58.7344 69.8542 60.2292 71.0938 61.4687C72.3333 62.7083 73.8281 63.3281 75.5781 63.3281ZM69.8906 41.0156H90.2344L78.0938 24.8281H69.8906V41.0156Z" fill="#562F7D"/>
</svg>
